<svg width="650" height="572" viewBox="0 0 650 572" fill="none" xmlns="http://www.w3.org/2000/svg">
<g filter="url(#filter0_d_302_657)">
<rect x="117" y="32" width="405" height="405" rx="58" fill="#FCFCFC"/>
</g>
<g clip-path="url(#clip0_302_657)">
<path d="M205.943 213.985C205.943 213.985 213.081 250.556 245.019 264.569" stroke="#284F70" stroke-width="0.496705" stroke-linecap="round" stroke-linejoin="round"/>
<path d="M210.639 228.527C210.639 228.527 208.02 220.795 215.541 217.294C215.541 217.294 217.866 225.77 210.639 228.527Z" fill="#284F70"/>
<path d="M210.639 228.527C210.639 228.527 208.02 220.795 215.541 217.294C213.626 220.908 211.987 224.663 210.639 228.527Z" fill="#6F96BD"/>
<path d="M221.564 246.377C221.564 246.377 217.115 240.349 222.717 235.177C222.717 235.177 227.12 241.954 221.564 246.377Z" fill="#284F70"/>
<path d="M221.564 246.377C221.564 246.377 217.115 240.349 222.717 235.177C222.049 238.876 221.663 242.62 221.564 246.377Z" fill="#6F96BD"/>
<path d="M216.018 238.921C216.018 238.921 212.437 231.588 204.64 234.41C204.64 234.41 208.959 242.099 216.018 238.921Z" fill="#284F70"/>
<path d="M216.018 238.922C216.018 238.922 212.437 231.588 204.64 234.41C208.541 235.623 212.344 237.131 216.018 238.922Z" fill="#6F96BD"/>
<path d="M205.56 213.882C205.052 213.772 204.555 213.615 204.075 213.414C201.643 212.445 197.072 209.614 196.862 202.06L198.65 204.747L199.654 200.665C202.572 204.58 204.589 209.094 205.56 213.882Z" fill="#FFA65B"/>
<path d="M203.291 211.748L205.56 213.882C205.56 213.882 210.653 211.65 209.79 200.665L207.175 203.473L204.57 199.317C204.57 199.317 201.578 205.439 203.291 211.748Z" fill="#FFA65B"/>
<path d="M206.125 214.818C206.125 214.818 201.143 215.038 200.13 212.413C200.13 212.413 203.095 210.297 205.56 213.882C205.56 213.882 205.975 209.151 210.074 210.882C210.074 210.882 210.112 213.948 206.125 214.818Z" fill="#284F70"/>
<path d="M342.294 236.249C342.294 236.249 338.966 272.605 309.208 289.435" stroke="#284F70" stroke-width="0.486357" stroke-linecap="round" stroke-linejoin="round"/>
<path d="M339.152 250.879C339.152 250.879 340.94 243.082 333.261 240.414C333.261 240.414 331.837 248.923 339.152 250.879Z" fill="#284F70"/>
<path d="M339.152 250.879C339.152 250.879 340.94 243.082 333.261 240.414C335.488 243.747 337.458 247.246 339.152 250.879Z" fill="#6F96BD"/>
<path d="M330.273 269.376C330.273 269.376 334.008 263.057 328.036 258.574C328.036 258.574 324.418 265.613 330.273 269.376Z" fill="#284F70"/>
<path d="M330.273 269.376C330.273 269.376 334.008 263.057 328.036 258.574C329.054 262.112 329.802 265.723 330.273 269.376Z" fill="#6F96BD"/>
<path d="M334.941 261.555C334.941 261.555 337.7 254.067 345.586 256.028C345.586 256.028 342.131 263.933 334.941 261.555Z" fill="#284F70"/>
<path d="M334.941 261.555C334.941 261.555 337.7 254.067 345.586 256.028C341.903 257.598 338.345 259.445 334.941 261.555Z" fill="#6F96BD"/>
<path d="M342.659 236.113C343.142 235.958 343.611 235.759 344.059 235.519C346.333 234.33 350.525 231.12 349.965 223.734L348.49 226.542L347.089 222.662C344.641 226.764 343.129 231.357 342.659 236.113Z" fill="#FFA65B"/>
<path d="M344.657 233.811L342.658 236.113C342.658 236.113 337.472 234.442 337.229 223.65L340.053 226.149L342.182 221.834C342.182 221.834 345.702 227.492 344.657 233.811Z" fill="#FFA65B"/>
<path d="M342.196 237.082C342.196 237.082 347.075 236.801 347.799 234.143C347.799 234.143 344.699 232.374 342.663 236.113C342.663 236.113 341.785 231.545 337.966 233.638C337.962 233.638 338.247 236.628 342.196 237.082Z" fill="#284F70"/>
<path d="M355.455 171.428C355.455 171.428 373.117 204.222 357.323 235.383" stroke="#284F70" stroke-width="0.496705" stroke-linecap="round" stroke-linejoin="round"/>
<path d="M361.506 189.859C361.506 189.859 358.625 182.221 350.595 184.303C350.595 184.303 354.181 192.339 361.506 189.859Z" fill="#284F70"/>
<path d="M361.506 189.859C361.506 189.859 358.625 182.221 350.595 184.303C354.367 185.875 358.015 187.732 361.506 189.859Z" fill="#6F96BD"/>
<path d="M360.213 183.068C360.213 183.068 358.345 175.111 366.142 172.336C366.142 172.336 367.664 181.008 360.213 183.068Z" fill="#284F70"/>
<path d="M360.213 183.068C360.213 183.068 358.345 175.111 366.142 172.336C363.895 175.756 361.912 179.344 360.213 183.068Z" fill="#6F96BD"/>
<path d="M355.689 171.11C356.013 170.705 356.299 170.271 356.543 169.813C357.808 167.511 359.559 162.405 354.914 156.451L355.24 159.662L351.879 157.149C352.106 162.027 353.407 166.795 355.689 171.11Z" fill="#FFA65B"/>
<path d="M356.09 168.021L355.689 171.11C355.689 171.11 350.338 172.631 344.045 163.621L347.855 164.141L347.234 159.259C347.234 159.259 353.41 162.068 356.09 168.021Z" fill="#FFA65B"/>
<path d="M355.843 172.196C355.843 172.196 359.83 169.196 358.947 166.518C358.947 166.518 355.315 166.771 355.679 171.11C355.679 171.11 352.36 167.726 350.292 171.667C350.301 171.667 352.229 174.044 355.843 172.196Z" fill="#284F70"/>
<path d="M249.417 188.132C249.417 188.132 241.798 211.626 261.607 231.616" stroke="#284F70" stroke-width="0.610533" stroke-linecap="round" stroke-linejoin="round"/>
<path d="M249.16 187.893C248.82 187.594 248.508 187.265 248.226 186.91C246.76 185.136 244.417 181.027 247.442 175.13L247.685 177.938L250.173 175.219C250.776 179.467 250.429 183.796 249.16 187.893Z" fill="#FFA65B"/>
<path d="M248.31 185.291L249.16 187.893C249.16 187.893 254.02 188.324 257.965 179.501L254.767 180.578L254.506 176.272C254.506 176.272 249.641 179.712 248.31 185.291Z" fill="#FFA65B"/>
<path d="M249.207 188.852C249.207 188.852 245.276 186.92 245.598 184.472C245.598 184.472 248.773 184.093 249.16 187.893C249.16 187.893 251.494 184.425 253.899 187.486C253.899 187.486 252.624 189.854 249.207 188.852Z" fill="#284F70"/>
<path d="M195.924 237.419C195.924 237.419 204.892 260.432 232.853 263.301" stroke="#284F70" stroke-width="0.610533" stroke-linecap="round" stroke-linejoin="round"/>
<path d="M195.574 237.419C195.119 237.409 194.666 237.357 194.22 237.265C191.965 236.825 187.553 235.135 186.162 228.648L188.137 230.68L188.342 226.992C191.49 229.891 193.959 233.452 195.574 237.419Z" fill="#FFA65B"/>
<path d="M193.272 235.926L195.574 237.396C195.574 237.396 199.607 234.639 197.077 225.311L195.284 228.176L192.371 225.012C192.371 225.012 190.774 230.764 193.272 235.926Z" fill="#FFA65B"/>
<path d="M196.218 238.112C196.218 238.112 191.956 239.113 190.658 237.012C190.658 237.012 192.871 234.705 195.574 237.396C195.574 237.396 195.168 233.249 198.982 234.073C198.982 234.073 199.491 236.712 196.218 238.112Z" fill="#284F70"/>
<path d="M280.445 239.024C269.977 225.812 259.296 237.007 261.513 221.469C263.731 205.931 252.494 202.327 245.038 202.42C237.671 202.509 244.445 171.129 223.828 175.388L223.767 175.252L223.431 175.476L223.035 175.565L223.091 175.701C205.747 187.659 233.021 204.498 227.857 209.759C222.624 215.09 217.432 225.709 230.149 234.868C242.867 244.028 227.414 243.995 229.683 260.717C231.952 277.44 252.092 275.02 252.092 275.02L264.945 274.084L265.052 274.337L265.365 274.051L265.79 274.023L265.678 273.766L275.248 265.117C275.248 265.117 290.912 252.237 280.445 239.024Z" fill="#799BBD"/>
<path d="M280.444 239.024C269.977 225.812 259.296 237.007 261.513 221.469C263.731 205.931 252.493 202.327 245.038 202.42C237.671 202.509 244.445 171.129 223.828 175.388L223.767 175.252L223.431 175.476L223.034 175.565L223.091 175.701L223.063 175.724L265.668 274.042H265.762L265.65 273.784L275.22 265.135C275.22 265.135 290.912 252.237 280.444 239.024Z" fill="#90B7D6"/>
<path d="M226.046 182.679L271.91 289.538" stroke="#315370" stroke-width="0.807145" stroke-linecap="round" stroke-linejoin="round"/>
<path d="M229.267 222.419L245.449 228.33L251.457 210.288" stroke="#315370" stroke-width="0.807145" stroke-linecap="round" stroke-linejoin="round"/>
<path d="M223.319 190.945L232.647 198.035L234.585 188.75" stroke="#315370" stroke-width="0.807145" stroke-linecap="round" stroke-linejoin="round"/>
<path d="M236.499 256.028L261.042 265L269.828 240.021" stroke="#315370" stroke-width="0.807145" stroke-linecap="round" stroke-linejoin="round"/>
<path d="M300.169 270.232C295.501 257.493 284.506 263.362 290.099 252.04C295.692 240.719 287.998 235.131 282.275 233.319C276.551 231.508 289.665 209.24 272.835 207.307V207.185L272.517 207.274L272.195 207.241V207.363C255.934 212.132 272.569 231.878 267.298 234.602C262.027 237.326 255.332 244.168 262.755 254.376C270.178 264.583 258.376 260.666 255.911 274.033C253.446 287.399 269.45 290.615 269.45 290.615L279.511 293.142V293.362L279.819 293.226L280.15 293.31V293.086L289.632 288.874C289.632 288.874 304.885 282.972 300.169 270.232Z" fill="#799BBD"/>
<path d="M300.169 270.232C295.501 257.493 284.506 263.362 290.099 252.04C295.692 240.719 287.998 235.131 282.275 233.319C276.551 231.508 289.665 209.24 272.835 207.307V207.185L272.517 207.274L272.195 207.241V207.363H272.167L280.104 293.273H280.174V293.048L289.656 288.836C289.656 288.836 304.885 282.972 300.169 270.232Z" fill="#90B7D6"/>
<path d="M272.704 213.442L280.981 306.705" stroke="#315370" stroke-width="0.651925" stroke-linecap="round" stroke-linejoin="round"/>
<path d="M265.201 244.641L276.098 253.238L285.211 240.957" stroke="#315370" stroke-width="0.651925" stroke-linecap="round" stroke-linejoin="round"/>
<path d="M268.549 219.077L273.899 226.846L277.713 220.233" stroke="#315370" stroke-width="0.651925" stroke-linecap="round" stroke-linejoin="round"/>
<path d="M262.307 272.165L278.82 285.204L291.803 268.318" stroke="#315370" stroke-width="0.651925" stroke-linecap="round" stroke-linejoin="round"/>
<path d="M406.712 121.593C406.712 121.593 412.422 121.34 414.686 127.677C416.95 134.014 412.739 138.007 413.986 143.005C415.232 148.004 417.44 162.419 404.994 161.726C391.922 161.019 370.101 161.951 368.518 146.609C367.267 134.478 375.582 135.507 378.896 128.436C382.211 121.364 387.197 115.354 395.605 117.343C404.014 119.333 406.712 121.593 406.712 121.593Z" fill="#6F3D3D"/>
<path d="M376.567 132.582L380.245 133.598" stroke="#284F70" stroke-width="0.698491" stroke-linecap="round" stroke-linejoin="round"/>
<path d="M387.641 150.919C387.641 150.919 387.813 154.738 387.641 157.102C387.641 157.102 400.246 162.068 399.158 157.102C398.07 152.136 400.297 145.401 400.297 145.401L387.641 150.919Z" fill="#EF8D7F"/>
<path d="M402.52 140.286C402.52 140.286 407.319 128.974 399.172 124.841C391.025 120.709 383.093 123.114 379.797 131.567C376.296 140.534 377.281 149.927 385.073 152.103C395.012 154.898 399.849 151.102 402.52 140.286Z" fill="#FFAC9D"/>
<path d="M400.053 138.807C400.854 135.843 399.267 132.833 396.509 132.084C393.752 131.336 390.867 133.132 390.067 136.096C389.266 139.06 390.853 142.07 393.61 142.818C396.368 143.567 399.252 141.771 400.053 138.807Z" stroke="#284F70" stroke-width="0.698491" stroke-linecap="round" stroke-linejoin="round"/>
<path d="M387.571 135.418C386.768 138.386 383.887 140.183 381.128 139.434C378.369 138.685 376.786 135.69 377.589 132.709C378.392 129.727 381.273 127.949 384.027 128.693C386.782 129.437 388.369 132.451 387.571 135.418Z" stroke="#284F70" stroke-width="0.698491" stroke-linecap="round" stroke-linejoin="round"/>
<path d="M389.732 137.73C389.732 137.73 389.163 136.12 386.931 136.968" stroke="#284F70" stroke-width="0.698491" stroke-linecap="round" stroke-linejoin="round"/>
<path d="M399.947 139.167L404.443 139.888" stroke="#284F70" stroke-width="0.698491" stroke-linecap="round" stroke-linejoin="round"/>
<path d="M396.642 139.631C396.789 139.039 396.765 138.417 396.572 137.838C396.478 137.581 396.317 137.355 396.105 137.183C396.001 137.094 395.89 137.015 395.773 136.944C395.652 136.879 395.517 136.823 395.391 136.766C395.153 136.65 394.887 136.604 394.625 136.633C394.362 136.662 394.113 136.765 393.906 136.93C393.46 137.353 393.112 137.869 392.888 138.442C392.879 137.758 393.116 137.093 393.556 136.57C393.812 136.288 394.153 136.099 394.527 136.032C394.898 135.981 395.276 136.027 395.624 136.167C395.969 136.285 396.28 136.486 396.53 136.751C396.78 137.017 396.961 137.341 397.057 137.693C397.126 138.027 397.125 138.372 397.053 138.706C396.981 139.039 396.841 139.354 396.642 139.631Z" fill="#251F28"/>
<path d="M385.736 136.411C385.831 135.807 385.753 135.189 385.512 134.627C385.391 134.381 385.207 134.172 384.98 134.019C384.87 133.939 384.752 133.871 384.629 133.813C384.498 133.758 384.364 133.709 384.228 133.668C383.981 133.574 383.713 133.552 383.455 133.604C383.196 133.657 382.958 133.781 382.767 133.963C382.361 134.424 382.062 134.969 381.889 135.559C381.818 134.877 381.995 134.192 382.388 133.631C382.621 133.324 382.95 133.105 383.322 133.008C383.687 132.926 384.066 132.939 384.424 133.046C384.78 133.132 385.109 133.306 385.382 133.551C385.655 133.796 385.863 134.105 385.988 134.45C386.082 134.776 386.109 135.119 386.065 135.456C386.022 135.794 385.91 136.119 385.736 136.411Z" fill="#251F28"/>
<path d="M387.949 135.54C387.854 136.107 387.681 136.659 387.435 137.178C387.187 137.704 386.861 138.19 386.469 138.62C386.074 139.056 385.598 139.412 385.068 139.668C384.535 139.922 383.954 140.062 383.364 140.08L383.5 139.865C383.663 140.333 383.85 140.768 384.055 141.208C384.253 141.656 384.494 142.084 384.774 142.486C384.43 142.128 384.131 141.731 383.882 141.301C383.624 140.877 383.396 140.434 383.201 139.977L383.121 139.794L383.336 139.762C384.42 139.628 385.424 139.124 386.179 138.334C386.566 137.943 386.906 137.508 387.192 137.038C387.489 136.562 387.742 136.061 387.949 135.54Z" fill="#D66E63"/>
<path d="M392.599 146.188C391.761 146.463 390.892 146.629 390.012 146.684C389.124 146.747 388.232 146.7 387.356 146.543C386.477 146.366 385.634 146.042 384.863 145.584C384.111 145.105 383.473 144.466 382.995 143.712C383.59 144.339 384.278 144.87 385.036 145.284C385.8 145.667 386.611 145.946 387.449 146.113C388.293 146.266 389.15 146.344 390.008 146.347C390.874 146.349 391.739 146.296 392.599 146.188Z" fill="#D66E63"/>
<path d="M390.47 147.184C389.881 147.47 389.251 147.66 388.602 147.746C387.951 147.841 387.289 147.829 386.642 147.709C385.986 147.583 385.367 147.311 384.83 146.913C384.309 146.512 383.892 145.99 383.616 145.392C383.823 145.633 384.044 145.862 384.279 146.075L384.634 146.379L385.022 146.632C385.545 146.949 386.12 147.171 386.721 147.287C387.337 147.4 387.963 147.441 388.588 147.409C389.22 147.381 389.849 147.305 390.47 147.184Z" fill="#D66E63"/>
<path d="M399.06 140.164C398.553 140.242 398.036 140.228 397.533 140.122L397.702 139.743C398.05 140.016 398.351 140.345 398.593 140.716C398.176 140.569 397.787 140.354 397.44 140.08L396.744 139.565L397.608 139.701C398.116 139.767 398.608 139.924 399.06 140.164Z" fill="#D66E63"/>
<path d="M379.839 134.384C380.256 134.511 380.645 134.714 380.988 134.983L381.553 135.4L380.862 135.32C380.484 135.287 380.114 135.189 379.769 135.03C380.137 134.941 380.518 134.914 380.894 134.95L380.768 135.287C380.407 135.045 380.092 134.739 379.839 134.384Z" fill="#D66E63"/>
<path d="M391.931 131.44C392.67 130.795 393.574 130.371 394.541 130.214C395.542 130.041 396.571 130.155 397.51 130.542C398.422 130.956 399.222 131.581 399.844 132.367C400.139 132.752 400.408 133.157 400.647 133.579C400.844 134.047 401.03 134.464 401.184 134.913C400.848 134.562 400.554 134.197 400.251 133.841L399.784 133.35C399.638 133.184 399.482 133.028 399.317 132.882C398.678 132.283 397.946 131.791 397.151 131.426C396.35 131.096 395.49 130.937 394.625 130.958C393.708 130.987 392.801 131.15 391.931 131.44Z" fill="white"/>
<path d="M381.721 128.014C382.287 127.5 382.983 127.152 383.733 127.008C384.516 126.837 385.332 126.917 386.067 127.237C386.797 127.564 387.413 128.102 387.837 128.782C388.039 129.106 388.209 129.45 388.346 129.807C388.449 130.167 388.53 130.532 388.588 130.902C388.341 130.612 388.122 130.312 387.935 130.027L387.594 129.624C387.493 129.487 387.381 129.358 387.258 129.241C387.132 129.124 387.015 129.007 386.903 128.885C386.791 128.763 386.642 128.688 386.515 128.585L386.324 128.44L386.114 128.323C385.982 128.236 385.842 128.164 385.694 128.108C385.105 127.853 384.468 127.727 383.826 127.738C383.117 127.759 382.412 127.851 381.721 128.014Z" fill="white"/>
<path d="M395.699 118.322C395.699 118.322 401.955 116.997 406.016 120.123C410.078 123.25 412.086 135.568 405.937 140.408L395.699 118.322Z" fill="#FFA65B"/>
<path d="M401.058 119.581C401.058 119.581 392.996 113.964 385.456 119.581C377.916 125.197 389.023 126.161 396.917 127.953C404.812 129.746 399.191 140.145 402.141 141.409C402.141 141.409 403.187 139.102 405.269 138.765C405.26 138.779 411.329 128.403 401.058 119.581Z" fill="#6F3D3D"/>
<path d="M401.189 142.471C401.189 142.471 403.243 138.105 406.044 138.699C408.846 139.294 405.666 147.325 398.808 146.3C398.808 146.3 400.652 143.445 401.189 142.471Z" fill="#FFAC9D"/>
<path d="M399.77 145.832C400.057 145.834 400.344 145.816 400.629 145.776C400.9 145.749 401.161 145.658 401.39 145.509C401.595 145.364 401.586 145.135 401.46 144.901C401.325 144.672 401.158 144.464 400.965 144.283L400.876 144.189L400.932 144.067C401.255 143.359 401.634 142.678 402.067 142.032C402.487 141.358 403.019 140.761 403.64 140.267C403.976 139.992 404.397 139.844 404.83 139.846C405.049 139.872 405.26 139.942 405.451 140.052C405.651 140.162 405.807 140.34 405.89 140.553C405.952 140.752 405.971 140.963 405.945 141.17C405.92 141.378 405.85 141.577 405.741 141.755C405.565 142.097 405.342 142.413 405.078 142.691C405.281 142.371 405.449 142.029 405.577 141.671C405.72 141.349 405.737 140.985 405.624 140.651C405.538 140.515 405.419 140.403 405.277 140.327C405.136 140.251 404.977 140.212 404.816 140.216C404.479 140.242 404.159 140.378 403.906 140.604C403.347 141.087 402.859 141.648 402.459 142.27C402.037 142.897 401.647 143.545 401.292 144.213L401.259 143.997C401.465 144.228 401.634 144.491 401.758 144.774C401.828 144.931 401.856 145.104 401.838 145.275C401.822 145.365 401.788 145.45 401.736 145.525C401.684 145.601 401.617 145.664 401.539 145.71C401.267 145.856 400.96 145.926 400.652 145.911C400.356 145.919 400.06 145.892 399.77 145.832Z" fill="#D66E63"/>
<path d="M401.226 146.974C401.161 147.221 401.025 147.444 400.834 147.614C400.643 147.784 400.406 147.893 400.153 147.928C399.901 147.963 399.643 147.923 399.413 147.812C399.183 147.7 398.992 147.523 398.862 147.303C398.732 147.083 398.67 146.829 398.684 146.573C398.698 146.318 398.787 146.072 398.94 145.867C399.093 145.662 399.303 145.507 399.544 145.422C399.785 145.337 400.045 145.325 400.293 145.387C400.459 145.429 400.615 145.503 400.752 145.605C400.889 145.708 401.004 145.837 401.091 145.984C401.178 146.132 401.235 146.296 401.258 146.465C401.281 146.635 401.27 146.808 401.226 146.974Z" fill="#FFA65B"/>
<path d="M382.108 173.249C379.355 171.159 376.918 168.681 374.872 165.891C374.405 165.25 375.255 160.635 374.769 159.994C370.824 170.291 363.214 196.177 356.207 205.608C349.027 215.277 357.029 216.302 357.029 216.302C357.029 216.302 368.523 215.483 378.971 189.559C380.979 184.685 382.694 179.695 384.107 174.615C383.43 174.185 382.757 173.735 382.108 173.249Z" fill="#5584AA"/>
<path d="M375.381 190.074C375.381 190.074 351.72 214.828 353.261 253.093H416.376C416.376 253.093 422.492 225.559 408.024 191.001C396.899 164.408 375.381 190.074 375.381 190.074Z" fill="#284F70"/>
<path d="M381.259 193.36C384.779 194.366 388.514 194.52 392.146 194.721C397.874 195.04 403.635 194.979 409.261 194.066C408.866 193.052 408.453 192.03 408.024 191.001C396.899 164.422 375.395 190.065 375.395 190.065L375.035 190.472C377.062 191.628 379.116 192.742 381.259 193.36Z" fill="#1D425B"/>
<path d="M415.872 233.305C407.739 234.794 398.957 233.698 390.918 232.065C383.565 230.572 376.805 228.148 370.792 223.547C367.038 220.698 363.774 217.253 361.128 213.349C356.459 224.09 352.621 236.904 353.275 253.093H416.376C416.376 253.093 418.108 245.984 417.51 232.968C416.969 233.09 416.423 233.207 415.872 233.305Z" fill="#1D425B"/>
<path d="M349.134 204.059C349.134 204.059 355.572 209.24 356.926 211.261C358.28 213.283 366.595 229.383 357.052 216.41C357.052 216.41 363.854 231.508 355.614 218.085C355.614 218.085 359.587 232.271 353.695 219.129C353.695 219.129 353.196 231.358 351.454 217.126C351.454 217.126 341.767 210.807 342.028 210.03C342.29 209.254 349.134 204.059 349.134 204.059Z" fill="#EF8D7F"/>
<path d="M356.963 216.316C356.599 215.848 352.589 219.241 352.589 219.241C352.589 219.241 356.478 213.761 355.749 213.396C355.021 213.031 351.193 217.538 351.193 217.538C351.193 217.538 354.232 212.235 353.807 211.87C353.382 211.505 349.237 216.62 349.237 216.62C349.237 216.62 352.64 211.687 352.337 210.835C352.033 209.984 348.205 213.7 347.476 215.464C347.01 216.634 347.789 217.027 348.382 217.163C347.659 219.939 349.783 219.302 349.783 219.302C349.316 220.58 351.183 220.519 351.183 220.519C351.183 220.519 350.516 220.949 351.548 221.74C352.579 222.531 357.332 216.826 356.963 216.316Z" fill="#FFAC9D"/>
<path d="M374.162 164.464C374.162 164.464 365.236 181.724 375.381 186.99V190.074C375.381 190.074 389.233 197.169 408.01 191.01C408.01 191.01 414.322 164.473 409.705 160.149C405.087 155.824 400.008 156.756 400.008 156.756L400.316 153.053L385.54 153.362V156.138C385.54 156.138 373.551 153.353 374.162 164.464Z" fill="#6F96BD"/>
<path opacity="0.5" d="M405.512 172.645C402.55 176.53 398.628 179.574 394.135 181.476C389.531 183.475 384.368 184.528 379.354 183.943C376.367 183.572 373.485 182.601 370.88 181.088C371.138 182.348 371.676 183.534 372.456 184.556C373.235 185.578 374.235 186.41 375.381 186.99V190.074C375.381 190.074 389.233 197.169 408.01 191.01C408.01 191.01 412.361 171.133 410.139 163.607C408.874 166.748 407.594 169.879 405.512 172.645Z" fill="#5584AA"/>
<path d="M425.802 206.441C425.802 206.441 418.453 218.965 426.353 208.837C426.353 208.837 426.539 227.619 428.005 212.703C428.005 212.703 430.578 226.514 430.027 212.703C430.027 212.703 434.229 225.779 431.866 212.151C431.866 212.151 437.193 223.013 430.933 204.784L425.802 206.441Z" fill="#FFAC9D"/>
<path d="M400.125 157.673C400.125 157.673 406.483 154.795 412.436 161.787C418.388 168.779 431.726 189.559 431.932 204.166C431.932 204.166 430.494 208.692 424.341 207.442C424.341 207.442 415.312 188.927 406.894 178.846C398.477 168.765 394.172 160.757 400.125 157.673Z" fill="#6F96BD"/>
<path d="M329.549 211.018C329.549 211.018 330.562 230.3 330.562 253.093H310.062L310.263 236.862L306.001 237.063L303.62 253.084H282.032C282.032 253.084 285.907 210.194 285.907 209.38C285.907 208.566 329.549 211.018 329.549 211.018Z" fill="#6F96BD"/>
<path d="M300.683 220.346C310.548 220.346 320.515 220.28 329.839 216.92C329.684 213.176 329.572 211.018 329.572 211.018C329.572 211.018 285.93 208.575 285.93 209.389C285.93 209.642 285.561 213.924 285.052 219.728C290.225 220.168 295.445 220.355 300.683 220.346Z" fill="#5584AA"/>
<path d="M310.254 237.489L310.062 253.093H330.562C330.562 246.592 330.478 240.232 330.361 234.686C323.797 236.343 316.986 237.054 310.254 237.489Z" fill="#5584AA"/>
<path d="M319.703 149.562C319.703 149.562 330.968 147.428 333.709 159.025C336.449 170.623 335.231 182.834 338.275 187.72C341.319 192.606 353.214 200.539 353.499 206.034C353.784 211.528 344.671 216.41 344.671 216.41C344.671 216.41 327.294 207.255 320.613 192.297C313.932 177.339 319.703 149.562 319.703 149.562Z" fill="#E0874B"/>
<path d="M296.836 131.815C296.836 131.815 296.561 148.195 293.442 148.724C290.323 149.253 278.75 148.879 278.596 152.768C278.442 156.657 315.286 158.323 319.017 152.239L316.127 149.492L296.836 131.815Z" fill="#EF8D7F"/>
<path d="M298.083 139.49C298.083 139.49 294.124 137.964 293.671 139.336C293.218 140.707 294.432 146.206 290.776 147.428C287.121 148.649 275.706 146.356 273.572 153.98C271.439 161.604 281.187 196.865 281.948 208.463C282.709 220.06 305.543 217.163 305.543 217.163C305.543 217.163 332.187 217.926 332.187 211.519C332.187 205.112 336.164 163.472 331.729 154.752C327.294 146.033 316.127 149.487 316.127 149.487L298.083 139.49Z" fill="#FFA65B"/>
<path d="M298.493 147.016C300.795 149.44 303.755 150.493 306.976 151.097C312.046 152.033 317.093 151.457 321.178 148.818C319.472 148.811 317.773 149.036 316.127 149.487L298.083 139.49C297.263 139.183 296.416 138.957 295.552 138.816C295.622 141.765 296.416 144.821 298.493 147.016Z" fill="#EA9250"/>
<path d="M320.17 195.143C312.345 193.921 304.352 191.202 297.676 186.882C290.328 182.132 285.216 175.008 280.622 167.693C278.064 163.747 275.96 159.523 274.347 155.103C274.146 154.542 273.96 153.971 273.773 153.404C273.698 153.596 273.633 153.798 273.572 154.008C271.443 161.637 281.187 196.893 281.948 208.491C282.709 220.088 305.543 217.191 305.543 217.191C305.543 217.191 332.187 217.954 332.187 211.547C332.187 209.38 332.654 203.202 333.064 195.634C328.761 195.957 324.436 195.792 320.17 195.143Z" fill="#EA9250"/>
<path d="M299.633 213.55C299.971 213.616 300.322 213.545 300.608 213.352C300.894 213.159 301.093 212.86 301.159 212.52L301.416 211.177C301.516 210.567 301.736 209.984 302.065 209.461C302.394 208.938 302.824 208.487 303.33 208.134C303.836 207.781 304.407 207.533 305.01 207.405C305.613 207.277 306.236 207.272 306.841 207.39C307.446 207.507 308.022 207.746 308.533 208.091C309.045 208.435 309.483 208.879 309.82 209.397C310.157 209.914 310.388 210.494 310.497 211.102C310.607 211.71 310.594 212.334 310.459 212.937L302.774 253.079H305.417L313.013 213.433C313.193 212.502 313.189 211.544 313 210.615C312.811 209.685 312.441 208.802 311.912 208.016C311.382 207.23 310.704 206.556 309.915 206.033C309.125 205.51 308.241 205.147 307.312 204.967C306.384 204.786 305.428 204.79 304.501 204.98C303.574 205.169 302.693 205.54 301.909 206.07C300.325 207.142 299.231 208.801 298.867 210.681L298.605 212.024C298.573 212.192 298.574 212.365 298.608 212.532C298.642 212.7 298.708 212.859 298.804 213.001C298.899 213.142 299.021 213.264 299.164 213.358C299.306 213.452 299.465 213.518 299.633 213.55Z" fill="#1D425B"/>
<path d="M296.14 197.202C296.14 197.202 304.203 198.985 306.309 200.193C308.414 201.4 325.058 215.249 308.704 204.761C308.704 204.761 324.059 218.563 308.157 206.899C308.157 206.899 321.328 219.494 306.902 208.687C306.902 208.687 313.904 221.394 304.002 207.892C304.002 207.892 292.522 206.534 292.42 205.72C292.317 204.906 296.14 197.202 296.14 197.202Z" fill="#FFAC9D"/>
<path d="M285.501 147.933C285.501 147.933 276.971 146.103 272.895 154.242C268.82 162.381 255.621 187.617 258.889 194.127C262.158 200.637 291.369 211.626 294.007 206.338L296.038 206.745C296.038 206.745 301.514 200.029 300.3 196.977C299.086 193.926 280.608 186.405 280.608 186.405C280.608 186.405 289.338 170.534 289.744 164.834C290.151 159.133 291.995 152.614 285.501 147.933Z" fill="#FFA65B"/>
<path d="M329.792 125.178L321.78 124.996" stroke="#284F70" stroke-width="0.719187" stroke-linecap="round" stroke-linejoin="round"/>
<path d="M296.481 123.54C296.481 123.54 295.188 109.031 304.852 106.752C314.516 104.473 325.483 109.729 324.264 123.161C323.046 136.593 324.568 143.286 318.783 146.969C312.999 150.653 294.506 146.74 296.481 123.54Z" fill="#FFAC9D"/>
<g filter="url(#filter1_d_302_657)">
<path d="M293.974 125.679C293.974 125.679 292.602 120.872 294.441 118.808C296.28 116.744 300.977 119.8 301.141 120.563C301.304 121.326 299.614 137.66 302.737 139.874C305.86 142.088 304.791 135.826 305.935 133.233C307.079 130.64 309.128 132.395 314.231 133.308C319.334 134.22 321.538 132.545 321.309 135.905C321.08 139.266 322.756 140.866 323.442 137.431C323.442 137.431 325.879 145.214 319.941 148.495C314.003 151.776 294.53 150.901 297.182 134.833C298.923 124.228 293.974 125.679 293.974 125.679Z" fill="white"/>
</g>
<path d="M308.055 135.142C308.055 135.142 306.458 142.163 310.338 142.925C314.217 143.688 313.993 139.874 313.993 139.874H316.505C316.505 139.874 316.43 143.075 317.798 143.15C319.166 143.225 320.389 139.106 320.16 136.598C320.16 136.598 317.037 137.286 316.047 135.531C316.047 135.521 312.7 137.262 308.055 135.142Z" fill="#FFAC9D"/>
<path d="M318.891 125.094C318.727 128.319 320.688 131.038 323.265 131.178C325.842 131.319 328.064 128.796 328.228 125.562C328.391 122.328 326.426 119.618 323.849 119.478C321.272 119.337 319.026 121.86 318.891 125.094Z" stroke="#284F70" stroke-width="0.672621" stroke-linecap="round" stroke-linejoin="round"/>
<path d="M305.352 124.092C305.188 127.368 307.387 130.177 310.263 130.308C313.139 130.439 315.623 127.902 315.786 124.626C315.949 121.35 313.755 118.542 310.875 118.401C307.994 118.261 305.534 120.807 305.352 124.092Z" stroke="#284F70" stroke-width="0.719187" stroke-linecap="round" stroke-linejoin="round"/>
<path d="M295.403 124.439L305.398 124.762" stroke="#284F70" stroke-width="0.719187" stroke-linecap="round" stroke-linejoin="round"/>
<path d="M315.623 125.693C315.623 125.693 317.569 123.694 318.863 125.875" stroke="#284F70" stroke-width="0.719187" stroke-linecap="round" stroke-linejoin="round"/>
<path d="M297.326 127.251C297.326 127.251 297.107 123.1 293.666 123.835C290.225 124.57 291.117 134.173 296.467 133.752C298.134 133.617 297.326 127.251 297.326 127.251Z" fill="#FFAC9D"/>
<path d="M295.585 132.882C295.351 132.707 295.149 132.493 294.987 132.25C294.797 131.995 294.705 131.679 294.73 131.361C294.762 131.196 294.828 131.039 294.924 130.902C295.019 130.764 295.143 130.647 295.286 130.56C295.42 130.479 295.559 130.405 295.702 130.34L296.131 130.191L295.949 130.378C296.054 129.587 296.101 128.789 296.089 127.991C296.056 127.219 295.977 126.381 295.566 125.843C295.462 125.715 295.329 125.614 295.178 125.55C295.026 125.485 294.862 125.459 294.698 125.473C294.341 125.464 293.992 125.578 293.708 125.796C293.122 126.332 292.726 127.045 292.578 127.827C292.586 127.41 292.657 126.997 292.788 126.601C292.914 126.183 293.142 125.803 293.451 125.496C293.787 125.178 294.226 124.99 294.688 124.967C294.801 124.967 294.913 124.967 295.029 124.967C295.152 124.982 295.273 125.01 295.389 125.052C295.625 125.138 295.835 125.283 296 125.473C296.285 125.832 296.476 126.257 296.556 126.709C296.643 127.127 296.687 127.554 296.687 127.982C296.691 128.817 296.603 129.65 296.425 130.467L296.397 130.621L296.248 130.659L295.856 130.762C295.734 130.808 295.613 130.855 295.496 130.911C295.387 130.959 295.289 131.029 295.208 131.116C295.128 131.204 295.067 131.308 295.029 131.421C294.973 131.675 295.009 131.941 295.132 132.17C295.253 132.425 295.405 132.664 295.585 132.882Z" fill="#D66E63"/>
<path d="M308.512 136.055C310.33 136.636 312.191 137.071 314.077 137.356C315.014 137.503 315.959 137.598 316.906 137.642C317.84 137.702 318.807 137.665 319.778 137.642C318.843 137.914 317.879 138.072 316.906 138.11C316.416 138.156 315.931 138.11 315.445 138.11C314.96 138.11 314.469 138.03 313.989 137.955C313.026 137.812 312.077 137.584 311.155 137.272C310.229 136.971 309.343 136.563 308.512 136.055Z" fill="#D66E63"/>
<path d="M311.636 138.667C312.156 138.885 312.689 139.071 313.232 139.223C313.771 139.375 314.32 139.487 314.876 139.556C315.429 139.617 315.988 139.617 316.542 139.556C317.101 139.491 317.651 139.364 318.181 139.177C317.688 139.479 317.144 139.687 316.575 139.79C316.002 139.892 315.416 139.908 314.838 139.837C313.694 139.702 312.598 139.301 311.636 138.667Z" fill="#D66E63"/>
<path d="M314.222 133.308C314.895 133.345 315.57 133.345 316.243 133.308C316.904 133.291 317.562 133.214 318.209 133.078C318.825 132.976 319.397 132.697 319.857 132.273C319.949 132.172 320.028 132.058 320.09 131.936C320.137 131.826 320.156 131.705 320.146 131.585C320.095 131.293 319.989 131.014 319.834 130.762C319.485 130.164 319.187 129.537 318.942 128.889C318.707 128.229 318.566 127.539 318.522 126.84C318.444 125.465 318.624 124.089 319.054 122.782C318.864 124.109 318.843 125.455 318.993 126.788C319.073 127.438 319.23 128.076 319.46 128.688C319.711 129.302 320.006 129.896 320.342 130.467C320.54 130.793 320.667 131.156 320.716 131.534C320.731 131.754 320.691 131.974 320.599 132.175C320.509 132.349 320.391 132.508 320.249 132.643C319.698 133.133 319.007 133.437 318.274 133.514C316.922 133.698 315.548 133.628 314.222 133.308Z" fill="#D66E63"/>
<path d="M308.69 125.857C309.151 125.857 309.525 124.968 309.525 123.872C309.525 122.776 309.151 121.888 308.69 121.888C308.228 121.888 307.854 122.776 307.854 123.872C307.854 124.968 308.228 125.857 308.69 125.857Z" fill="#251F28"/>
<path d="M322.009 124.79C322.009 125.885 321.636 126.774 321.174 126.774C320.711 126.774 320.338 125.885 320.338 124.79C320.338 123.694 320.711 122.805 321.174 122.805C321.636 122.805 322.009 123.69 322.009 124.79Z" fill="#251F28"/>
<path d="M306.052 124.331C306.5 124.351 306.942 124.439 307.364 124.593L307.635 124.687L307.41 124.855C307.262 124.962 307.106 125.059 306.944 125.145C306.786 125.236 306.616 125.304 306.439 125.347C306.678 125.085 306.939 124.843 307.219 124.626L307.266 124.883C306.835 124.764 306.425 124.577 306.052 124.331Z" fill="#D66E63"/>
<path d="M323.559 124.991C323.25 125.242 322.913 125.458 322.555 125.632L322.583 125.384C323.024 125.688 323.42 126.051 323.76 126.465C323.271 126.248 322.815 125.963 322.406 125.618L322.21 125.464L322.429 125.365C322.791 125.199 323.17 125.074 323.559 124.991Z" fill="#D66E63"/>
<path d="M305.557 118.687C306.017 117.767 306.738 117.005 307.63 116.496C308.556 115.952 309.62 115.689 310.692 115.738C310.828 115.74 310.964 115.75 311.099 115.766L311.5 115.841C311.767 115.886 312.028 115.958 312.28 116.056C312.527 116.164 312.775 116.262 313.013 116.375C313.251 116.487 313.456 116.665 313.671 116.815L313.984 117.044L314.255 117.32C314.432 117.503 314.605 117.69 314.768 117.882C315.064 118.29 315.315 118.729 315.515 119.192C315.048 119.01 314.619 118.776 314.203 118.579C313.989 118.495 313.778 118.406 313.578 118.312L313.284 118.172L312.975 118.074C312.77 118.008 312.574 117.938 312.383 117.863C312.191 117.788 311.981 117.769 311.785 117.722C311.592 117.671 311.395 117.638 311.197 117.624L310.903 117.577C310.805 117.577 310.706 117.577 310.608 117.577C309.793 117.541 308.976 117.626 308.185 117.83C307.293 118.063 306.415 118.349 305.557 118.687Z" fill="white"/>
<path d="M319.175 119.66C319.341 118.83 319.782 118.082 320.427 117.535C320.776 117.229 321.182 116.994 321.622 116.846C322.062 116.697 322.527 116.637 322.99 116.669C323.91 116.757 324.765 117.184 325.389 117.868C325.661 118.184 325.899 118.527 326.099 118.893C326.263 119.27 326.387 119.664 326.468 120.067C326.109 119.907 325.764 119.717 325.436 119.501C325.1 119.342 324.806 119.15 324.502 119.005C323.986 118.739 323.426 118.566 322.85 118.495C322.278 118.458 321.706 118.547 321.174 118.757C320.492 119.022 319.825 119.323 319.175 119.66Z" fill="white"/>
<rect x="172" y="253" width="262" height="64" fill="white"/>
</g>
<path d="M192.103 301.975C192.103 299.812 192.586 297.88 193.552 296.179C194.539 294.457 195.872 293.123 197.552 292.178C199.253 291.212 201.154 290.729 203.254 290.729C205.711 290.729 207.863 291.359 209.711 292.619C211.559 293.879 212.851 295.622 213.586 297.848H208.514C208.01 296.798 207.296 296.011 206.372 295.486C205.469 294.961 204.419 294.698 203.222 294.698C201.941 294.698 200.797 295.003 199.789 295.612C198.802 296.2 198.025 297.04 197.458 298.132C196.912 299.224 196.639 300.505 196.639 301.975C196.639 303.424 196.912 304.705 197.458 305.818C198.025 306.91 198.802 307.76 199.789 308.37C200.797 308.957 201.941 309.251 203.222 309.251C204.419 309.251 205.469 308.989 206.372 308.464C207.296 307.918 208.01 307.12 208.514 306.07H213.586C212.851 308.317 211.559 310.07 209.711 311.33C207.884 312.569 205.732 313.189 203.254 313.189C201.154 313.189 199.253 312.716 197.552 311.771C195.872 310.805 194.539 309.472 193.552 307.771C192.586 306.07 192.103 304.138 192.103 301.975ZM234.142 295.549V313H229.7V310.795C229.133 311.551 228.388 312.149 227.464 312.59C226.561 313.011 225.574 313.221 224.503 313.221C223.138 313.221 221.93 312.937 220.88 312.37C219.83 311.782 219.001 310.931 218.392 309.818C217.804 308.684 217.51 307.34 217.51 305.786V295.549H221.92V305.156C221.92 306.542 222.266 307.613 222.959 308.37C223.652 309.104 224.597 309.472 225.794 309.472C227.012 309.472 227.968 309.104 228.661 308.37C229.354 307.613 229.7 306.542 229.7 305.156V295.549H234.142ZM241.044 293.47C240.267 293.47 239.616 293.228 239.091 292.745C238.587 292.241 238.335 291.622 238.335 290.887C238.335 290.152 238.587 289.543 239.091 289.06C239.616 288.556 240.267 288.304 241.044 288.304C241.821 288.304 242.462 288.556 242.966 289.06C243.491 289.543 243.753 290.152 243.753 290.887C243.753 291.622 243.491 292.241 242.966 292.745C242.462 293.228 241.821 293.47 241.044 293.47ZM243.218 295.549V313H238.808V295.549H243.218ZM246.756 304.211C246.756 302.447 247.102 300.883 247.795 299.518C248.509 298.153 249.475 297.103 250.693 296.368C251.911 295.633 253.266 295.265 254.757 295.265C255.891 295.265 256.972 295.517 258.001 296.021C259.03 296.504 259.849 297.155 260.458 297.974V289.69H264.931V313H260.458V310.417C259.912 311.278 259.146 311.971 258.159 312.496C257.172 313.021 256.027 313.284 254.725 313.284C253.255 313.284 251.911 312.906 250.693 312.149C249.475 311.393 248.509 310.333 247.795 308.968C247.102 307.582 246.756 305.996 246.756 304.211ZM260.49 304.274C260.49 303.203 260.28 302.29 259.86 301.534C259.44 300.757 258.873 300.169 258.159 299.77C257.445 299.35 256.678 299.14 255.859 299.14C255.04 299.14 254.284 299.339 253.591 299.738C252.898 300.137 252.331 300.725 251.89 301.502C251.47 302.258 251.26 303.161 251.26 304.211C251.26 305.261 251.47 306.185 251.89 306.983C252.331 307.76 252.898 308.359 253.591 308.779C254.305 309.199 255.061 309.409 255.859 309.409C256.678 309.409 257.445 309.209 258.159 308.81C258.873 308.39 259.44 307.802 259.86 307.046C260.28 306.269 260.49 305.345 260.49 304.274ZM285.776 303.896C285.776 304.526 285.734 305.093 285.65 305.597H272.893C272.998 306.857 273.439 307.844 274.216 308.558C274.993 309.272 275.948 309.629 277.082 309.629C278.72 309.629 279.886 308.926 280.579 307.519H285.335C284.831 309.199 283.865 310.585 282.437 311.677C281.009 312.748 279.256 313.284 277.177 313.284C275.497 313.284 273.985 312.916 272.641 312.181C271.318 311.425 270.278 310.364 269.522 308.999C268.787 307.634 268.42 306.059 268.42 304.274C268.42 302.468 268.787 300.883 269.522 299.518C270.257 298.153 271.286 297.103 272.609 296.368C273.932 295.633 275.455 295.265 277.177 295.265C278.836 295.265 280.316 295.622 281.618 296.336C282.941 297.05 283.96 298.069 284.674 299.392C285.409 300.694 285.776 302.195 285.776 303.896ZM281.209 302.636C281.188 301.502 280.778 300.599 279.98 299.927C279.182 299.234 278.206 298.888 277.051 298.888C275.959 298.888 275.035 299.224 274.279 299.896C273.544 300.547 273.092 301.46 272.924 302.636H281.209ZM295.997 304.211C295.997 302.447 296.343 300.883 297.036 299.518C297.75 298.153 298.716 297.103 299.934 296.368C301.152 295.633 302.507 295.265 303.998 295.265C305.132 295.265 306.213 295.517 307.242 296.021C308.271 296.504 309.09 297.155 309.699 297.974V289.69H314.172V313H309.699V310.417C309.153 311.278 308.387 311.971 307.4 312.496C306.413 313.021 305.268 313.284 303.966 313.284C302.496 313.284 301.152 312.906 299.934 312.149C298.716 311.393 297.75 310.333 297.036 308.968C296.343 307.582 295.997 305.996 295.997 304.211ZM309.731 304.274C309.731 303.203 309.521 302.29 309.101 301.534C308.681 300.757 308.114 300.169 307.4 299.77C306.686 299.35 305.919 299.14 305.1 299.14C304.281 299.14 303.525 299.339 302.832 299.738C302.139 300.137 301.572 300.725 301.131 301.502C300.711 302.258 300.501 303.161 300.501 304.211C300.501 305.261 300.711 306.185 301.131 306.983C301.572 307.76 302.139 308.359 302.832 308.779C303.546 309.199 304.302 309.409 305.1 309.409C305.919 309.409 306.686 309.209 307.4 308.81C308.114 308.39 308.681 307.802 309.101 307.046C309.521 306.269 309.731 305.345 309.731 304.274ZM335.017 303.896C335.017 304.526 334.975 305.093 334.891 305.597H322.134C322.239 306.857 322.68 307.844 323.457 308.558C324.234 309.272 325.189 309.629 326.323 309.629C327.961 309.629 329.127 308.926 329.82 307.519H334.576C334.072 309.199 333.106 310.585 331.678 311.677C330.25 312.748 328.497 313.284 326.418 313.284C324.738 313.284 323.226 312.916 321.882 312.181C320.559 311.425 319.519 310.364 318.763 308.999C318.028 307.634 317.661 306.059 317.661 304.274C317.661 302.468 318.028 300.883 318.763 299.518C319.498 298.153 320.527 297.103 321.85 296.368C323.173 295.633 324.696 295.265 326.418 295.265C328.077 295.265 329.557 295.622 330.859 296.336C332.182 297.05 333.201 298.069 333.915 299.392C334.65 300.694 335.017 302.195 335.017 303.896ZM330.45 302.636C330.429 301.502 330.019 300.599 329.221 299.927C328.423 299.234 327.447 298.888 326.292 298.888C325.2 298.888 324.276 299.224 323.52 299.896C322.785 300.547 322.333 301.46 322.165 302.636H330.45ZM345.238 304.243C345.238 302.5 345.595 300.956 346.309 299.612C347.044 298.247 348.031 297.187 349.27 296.431C350.509 295.675 351.874 295.297 353.365 295.297C354.604 295.297 355.696 295.538 356.641 296.021C357.607 296.483 358.384 297.082 358.972 297.817V295.549H363.413V321.316H358.972V310.606C358.384 311.362 357.596 311.992 356.609 312.496C355.622 313 354.509 313.252 353.27 313.252C351.8 313.252 350.446 312.874 349.207 312.118C347.989 311.341 347.023 310.27 346.309 308.905C345.595 307.54 345.238 305.986 345.238 304.243ZM358.972 304.274C358.972 303.203 358.751 302.279 358.31 301.502C357.869 300.725 357.292 300.137 356.578 299.738C355.885 299.339 355.139 299.14 354.341 299.14C353.564 299.14 352.819 299.339 352.105 299.738C351.412 300.137 350.845 300.725 350.404 301.502C349.963 302.258 349.742 303.172 349.742 304.243C349.742 305.314 349.963 306.248 350.404 307.046C350.845 307.823 351.412 308.411 352.105 308.81C352.819 309.209 353.564 309.409 354.341 309.409C355.139 309.409 355.885 309.209 356.578 308.81C357.292 308.411 357.869 307.823 358.31 307.046C358.751 306.269 358.972 305.345 358.972 304.274ZM384.51 295.549V313H380.068V310.795C379.501 311.551 378.756 312.149 377.832 312.59C376.929 313.011 375.942 313.221 374.871 313.221C373.506 313.221 372.298 312.937 371.248 312.37C370.198 311.782 369.369 310.931 368.76 309.818C368.172 308.684 367.878 307.34 367.878 305.786V295.549H372.288V305.156C372.288 306.542 372.634 307.613 373.327 308.37C374.02 309.104 374.965 309.472 376.162 309.472C377.38 309.472 378.336 309.104 379.029 308.37C379.722 307.613 380.068 306.542 380.068 305.156V295.549H384.51ZM405.399 303.896C405.399 304.526 405.357 305.093 405.273 305.597H392.515C392.62 306.857 393.061 307.844 393.838 308.558C394.615 309.272 395.571 309.629 396.705 309.629C398.343 309.629 399.508 308.926 400.201 307.519H404.958C404.454 309.199 403.488 310.585 402.06 311.677C400.632 312.748 398.878 313.284 396.799 313.284C395.119 313.284 393.607 312.916 392.263 312.181C390.94 311.425 389.901 310.364 389.145 308.999C388.41 307.634 388.042 306.059 388.042 304.274C388.042 302.468 388.41 300.883 389.145 299.518C389.88 298.153 390.909 297.103 392.232 296.368C393.555 295.633 395.077 295.265 396.799 295.265C398.458 295.265 399.939 295.622 401.241 296.336C402.564 297.05 403.582 298.069 404.296 299.392C405.031 300.694 405.399 302.195 405.399 303.896ZM400.831 302.636C400.81 301.502 400.401 300.599 399.603 299.927C398.805 299.234 397.828 298.888 396.673 298.888C395.581 298.888 394.657 299.224 393.901 299.896C393.166 300.547 392.715 301.46 392.547 302.636H400.831ZM430.605 295.297C432.747 295.297 434.469 295.958 435.771 297.281C437.094 298.583 437.755 300.41 437.755 302.762V313H433.345V303.361C433.345 301.996 432.999 300.956 432.306 300.242C431.613 299.507 430.668 299.14 429.471 299.14C428.274 299.14 427.318 299.507 426.604 300.242C425.911 300.956 425.565 301.996 425.565 303.361V313H421.155V303.361C421.155 301.996 420.808 300.956 420.115 300.242C419.422 299.507 418.477 299.14 417.28 299.14C416.062 299.14 415.096 299.507 414.382 300.242C413.689 300.956 413.343 301.996 413.343 303.361V313H408.933V295.549H413.343V297.659C413.91 296.924 414.634 296.347 415.516 295.927C416.419 295.507 417.406 295.297 418.477 295.297C419.842 295.297 421.06 295.591 422.131 296.179C423.202 296.746 424.032 297.565 424.62 298.636C425.187 297.628 426.006 296.819 427.077 296.21C428.169 295.601 429.345 295.297 430.605 295.297ZM200.45 355.936L204.86 342.549H209.554L203.096 360H197.741L191.315 342.549H196.04L200.45 355.936ZM220.094 360.284C218.414 360.284 216.902 359.916 215.558 359.181C214.214 358.425 213.154 357.364 212.377 355.999C211.621 354.634 211.243 353.059 211.243 351.274C211.243 349.489 211.631 347.914 212.408 346.549C213.206 345.184 214.288 344.134 215.653 343.399C217.018 342.643 218.54 342.265 220.22 342.265C221.9 342.265 223.423 342.643 224.788 343.399C226.153 344.134 227.224 345.184 228.001 346.549C228.799 347.914 229.198 349.489 229.198 351.274C229.198 353.059 228.788 354.634 227.969 355.999C227.171 357.364 226.079 358.425 224.693 359.181C223.328 359.916 221.795 360.284 220.094 360.284ZM220.094 356.44C220.892 356.44 221.638 356.251 222.331 355.873C223.045 355.474 223.612 354.886 224.032 354.109C224.452 353.332 224.662 352.387 224.662 351.274C224.662 349.615 224.221 348.345 223.339 347.463C222.478 346.56 221.417 346.108 220.157 346.108C218.897 346.108 217.837 346.56 216.976 347.463C216.136 348.345 215.716 349.615 215.716 351.274C215.716 352.933 216.125 354.214 216.944 355.117C217.784 355.999 218.834 356.44 220.094 356.44ZM231.614 351.274C231.614 349.468 231.981 347.893 232.716 346.549C233.451 345.184 234.47 344.134 235.772 343.399C237.074 342.643 238.565 342.265 240.245 342.265C242.408 342.265 244.193 342.811 245.6 343.903C247.028 344.974 247.983 346.486 248.466 348.439H243.71C243.458 347.683 243.027 347.095 242.418 346.675C241.83 346.234 241.095 346.014 240.213 346.014C238.953 346.014 237.956 346.476 237.221 347.4C236.486 348.303 236.118 349.594 236.118 351.274C236.118 352.933 236.486 354.225 237.221 355.149C237.956 356.052 238.953 356.503 240.213 356.503C241.998 356.503 243.164 355.705 243.71 354.109H248.466C247.983 355.999 247.028 357.501 245.6 358.614C244.172 359.727 242.387 360.284 240.245 360.284C238.565 360.284 237.074 359.916 235.772 359.181C234.47 358.425 233.451 357.375 232.716 356.031C231.981 354.666 231.614 353.08 231.614 351.274ZM268.235 350.896C268.235 351.526 268.193 352.093 268.109 352.597H255.351C255.456 353.857 255.897 354.844 256.674 355.558C257.451 356.272 258.407 356.629 259.541 356.629C261.179 356.629 262.344 355.926 263.037 354.519H267.794C267.29 356.199 266.324 357.585 264.896 358.677C263.468 359.748 261.714 360.284 259.635 360.284C257.955 360.284 256.443 359.916 255.099 359.181C253.776 358.425 252.737 357.364 251.981 355.999C251.246 354.634 250.878 353.059 250.878 351.274C250.878 349.468 251.246 347.883 251.981 346.518C252.716 345.153 253.745 344.103 255.068 343.368C256.391 342.633 257.913 342.265 259.635 342.265C261.294 342.265 262.775 342.622 264.077 343.336C265.4 344.05 266.418 345.069 267.132 346.392C267.867 347.694 268.235 349.195 268.235 350.896ZM263.667 349.636C263.646 348.502 263.237 347.599 262.439 346.927C261.641 346.234 260.664 345.888 259.509 345.888C258.417 345.888 257.493 346.224 256.737 346.896C256.002 347.547 255.551 348.46 255.383 349.636H263.667ZM259.572 338.611L254.879 341.257V338.044L259.572 335.493L264.234 338.044V341.257L259.572 338.611ZM278.455 351.211C278.455 349.447 278.802 347.883 279.495 346.518C280.209 345.153 281.164 344.103 282.361 343.368C283.579 342.633 284.934 342.265 286.425 342.265C287.727 342.265 288.861 342.528 289.827 343.053C290.814 343.578 291.601 344.239 292.189 345.037V342.549H296.631V360H292.189V357.448C291.622 358.267 290.835 358.95 289.827 359.496C288.84 360.021 287.695 360.284 286.393 360.284C284.923 360.284 283.579 359.906 282.361 359.149C281.164 358.393 280.209 357.333 279.495 355.968C278.802 354.582 278.455 352.996 278.455 351.211ZM292.189 351.274C292.189 350.203 291.979 349.29 291.559 348.534C291.139 347.757 290.572 347.169 289.858 346.77C289.144 346.35 288.378 346.14 287.559 346.14C286.74 346.14 285.984 346.339 285.291 346.738C284.598 347.137 284.031 347.725 283.59 348.502C283.17 349.258 282.96 350.161 282.96 351.211C282.96 352.261 283.17 353.185 283.59 353.983C284.031 354.76 284.598 355.359 285.291 355.779C286.005 356.199 286.761 356.409 287.559 356.409C288.378 356.409 289.144 356.209 289.858 355.81C290.572 355.39 291.139 354.802 291.559 354.046C291.979 353.269 292.189 352.345 292.189 351.274ZM322.925 342.297C325.067 342.297 326.789 342.958 328.091 344.281C329.414 345.583 330.075 347.41 330.075 349.762V360H325.665V350.361C325.665 348.996 325.319 347.956 324.626 347.242C323.933 346.507 322.988 346.14 321.791 346.14C320.594 346.14 319.638 346.507 318.924 347.242C318.231 347.956 317.885 348.996 317.885 350.361V360H313.475V350.361C313.475 348.996 313.128 347.956 312.435 347.242C311.742 346.507 310.797 346.14 309.6 346.14C308.382 346.14 307.416 346.507 306.702 347.242C306.009 347.956 305.663 348.996 305.663 350.361V360H301.253V342.549H305.663V344.659C306.23 343.924 306.954 343.347 307.836 342.927C308.739 342.507 309.726 342.297 310.797 342.297C312.162 342.297 313.38 342.591 314.451 343.179C315.522 343.746 316.352 344.565 316.94 345.636C317.507 344.628 318.326 343.819 319.397 343.21C320.489 342.601 321.665 342.297 322.925 342.297ZM333.441 351.211C333.441 349.447 333.788 347.883 334.481 346.518C335.195 345.153 336.15 344.103 337.347 343.368C338.565 342.633 339.92 342.265 341.411 342.265C342.713 342.265 343.847 342.528 344.813 343.053C345.8 343.578 346.587 344.239 347.175 345.037V342.549H351.617V360H347.175V357.448C346.608 358.267 345.821 358.95 344.813 359.496C343.826 360.021 342.681 360.284 341.379 360.284C339.909 360.284 338.565 359.906 337.347 359.149C336.15 358.393 335.195 357.333 334.481 355.968C333.788 354.582 333.441 352.996 333.441 351.211ZM347.175 351.274C347.175 350.203 346.965 349.29 346.545 348.534C346.125 347.757 345.558 347.169 344.844 346.77C344.13 346.35 343.364 346.14 342.545 346.14C341.726 346.14 340.97 346.339 340.277 346.738C339.584 347.137 339.017 347.725 338.576 348.502C338.156 349.258 337.946 350.161 337.946 351.211C337.946 352.261 338.156 353.185 338.576 353.983C339.017 354.76 339.584 355.359 340.277 355.779C340.991 356.199 341.747 356.409 342.545 356.409C343.364 356.409 344.13 356.209 344.844 355.81C345.558 355.39 346.125 354.802 346.545 354.046C346.965 353.269 347.175 352.345 347.175 351.274ZM358.192 360.221C357.394 360.221 356.732 359.979 356.207 359.496C355.703 358.992 355.451 358.372 355.451 357.637C355.451 356.902 355.703 356.293 356.207 355.81C356.732 355.306 357.394 355.054 358.192 355.054C358.969 355.054 359.609 355.306 360.113 355.81C360.617 356.293 360.869 356.902 360.869 357.637C360.869 358.372 360.617 358.992 360.113 359.496C359.609 359.979 358.969 360.221 358.192 360.221Z" fill="#EF6D1F"/>
<g filter="url(#filter2_d_302_657)">
<rect x="446" y="348" width="147" height="147" rx="33.6" fill="white"/>
</g>
<g filter="url(#filter3_d_302_657)">
<rect x="86" y="129" width="61" height="61" rx="13" fill="white"/>
</g>
<defs>
<filter id="filter0_d_302_657" x="60" y="0" width="519" height="519" filterUnits="userSpaceOnUse" color-interpolation-filters="sRGB">
<feFlood flood-opacity="0" result="BackgroundImageFix"/>
<feColorMatrix in="SourceAlpha" type="matrix" values="0 0 0 0 0 0 0 0 0 0 0 0 0 0 0 0 0 0 127 0" result="hardAlpha"/>
<feOffset dy="25"/>
<feGaussianBlur stdDeviation="28.5"/>
<feColorMatrix type="matrix" values="0 0 0 0 0.937255 0 0 0 0 0.427451 0 0 0 0 0.121569 0 0 0 0.15 0"/>
<feBlend mode="normal" in2="BackgroundImageFix" result="effect1_dropShadow_302_657"/>
<feBlend mode="normal" in="SourceGraphic" in2="effect1_dropShadow_302_657" result="shape"/>
</filter>
<filter id="filter1_d_302_657" x="291.482" y="117.104" width="34.4556" height="35.9276" filterUnits="userSpaceOnUse" color-interpolation-filters="sRGB">
<feFlood flood-opacity="0" result="BackgroundImageFix"/>
<feColorMatrix in="SourceAlpha" type="matrix" values="0 0 0 0 0 0 0 0 0 0 0 0 0 0 0 0 0 0 127 0" result="hardAlpha"/>
<feOffset dy="1"/>
<feGaussianBlur stdDeviation="1"/>
<feColorMatrix type="matrix" values="0 0 0 0 0 0 0 0 0 0 0 0 0 0 0 0 0 0 0.05 0"/>
<feBlend mode="normal" in2="BackgroundImageFix" result="effect1_dropShadow_302_657"/>
<feBlend mode="normal" in="SourceGraphic" in2="effect1_dropShadow_302_657" result="shape"/>
</filter>
<filter id="filter2_d_302_657" x="389" y="311" width="261" height="261" filterUnits="userSpaceOnUse" color-interpolation-filters="sRGB">
<feFlood flood-opacity="0" result="BackgroundImageFix"/>
<feColorMatrix in="SourceAlpha" type="matrix" values="0 0 0 0 0 0 0 0 0 0 0 0 0 0 0 0 0 0 127 0" result="hardAlpha"/>
<feOffset dy="20"/>
<feGaussianBlur stdDeviation="28.5"/>
<feColorMatrix type="matrix" values="0 0 0 0 0.937255 0 0 0 0 0.427451 0 0 0 0 0.121569 0 0 0 0.3 0"/>
<feBlend mode="normal" in2="BackgroundImageFix" result="effect1_dropShadow_302_657"/>
<feBlend mode="normal" in="SourceGraphic" in2="effect1_dropShadow_302_657" result="shape"/>
</filter>
<filter id="filter3_d_302_657" x="0" y="65.68" width="233" height="233" filterUnits="userSpaceOnUse" color-interpolation-filters="sRGB">
<feFlood flood-opacity="0" result="BackgroundImageFix"/>
<feColorMatrix in="SourceAlpha" type="matrix" values="0 0 0 0 0 0 0 0 0 0 0 0 0 0 0 0 0 0 127 0" result="hardAlpha"/>
<feOffset dy="22.68"/>
<feGaussianBlur stdDeviation="43"/>
<feColorMatrix type="matrix" values="0 0 0 0 0.937255 0 0 0 0 0.427451 0 0 0 0 0.121569 0 0 0 0.3 0"/>
<feBlend mode="normal" in2="BackgroundImageFix" result="effect1_dropShadow_302_657"/>
<feBlend mode="normal" in="SourceGraphic" in2="effect1_dropShadow_302_657" result="shape"/>
</filter>
<clipPath id="clip0_302_657">
<rect width="260" height="218" fill="white" transform="translate(174 89)"/>
</clipPath>
</defs>
</svg>
