<svg width="171" height="63" viewBox="0 0 171 63" fill="none" xmlns="http://www.w3.org/2000/svg">
<path d="M47.8271 23.1842H53.8426C55.2359 23.1842 56.4717 23.4447 57.55 23.9657C58.6283 24.4866 59.4643 25.2257 60.058 26.1829C60.6516 27.14 60.9485 28.2607 60.9485 29.545C60.9485 30.8293 60.6516 31.95 60.058 32.9071C59.4643 33.8643 58.6283 34.6033 57.55 35.1243C56.4717 35.6453 55.2359 35.9058 53.8426 35.9058H47.8271V23.1842ZM53.6972 33.0343C54.7876 33.0343 55.6599 32.7254 56.3142 32.1075C56.9806 31.4896 57.3138 30.6354 57.3138 29.545C57.3138 28.4546 56.9806 27.6004 56.3142 26.9825C55.6599 26.3646 54.7876 26.0556 53.6972 26.0556H51.4255V33.0343H53.6972ZM69.257 36.1602C67.9121 36.1602 66.7005 35.8755 65.6222 35.306C64.556 34.7366 63.714 33.9491 63.0961 32.9435C62.4903 31.9378 62.1874 30.805 62.1874 29.545C62.1874 28.2849 62.4903 27.1521 63.0961 26.1465C63.714 25.1409 64.556 24.3534 65.6222 23.7839C66.7005 23.2145 67.9121 22.9298 69.257 22.9298C70.6018 22.9298 71.8073 23.2145 72.8735 23.7839C73.9518 24.3534 74.7939 25.1409 75.3997 26.1465C76.0176 27.1521 76.3265 28.2849 76.3265 29.545C76.3265 30.805 76.0176 31.9378 75.3997 32.9435C74.7939 33.9491 73.9518 34.7366 72.8735 35.306C71.8073 35.8755 70.6018 36.1602 69.257 36.1602ZM69.257 33.1797C69.8991 33.1797 70.4807 33.0283 71.0016 32.7254C71.5226 32.4225 71.9346 31.9984 72.2374 31.4532C72.5403 30.8959 72.6918 30.2598 72.6918 29.545C72.6918 28.8302 72.5403 28.2001 72.2374 27.6549C71.9346 27.0976 71.5226 26.6675 71.0016 26.3646C70.4807 26.0617 69.8991 25.9103 69.257 25.9103C68.6148 25.9103 68.0333 26.0617 67.5123 26.3646C66.9913 26.6675 66.5794 27.0976 66.2765 27.6549C65.9736 28.2001 65.8221 28.8302 65.8221 29.545C65.8221 30.2598 65.9736 30.8959 66.2765 31.4532C66.5794 31.9984 66.9913 32.4225 67.5123 32.7254C68.0333 33.0283 68.6148 33.1797 69.257 33.1797ZM82.6819 36.1602C81.6521 36.1602 80.6525 36.033 79.6833 35.7785C78.714 35.5241 77.9265 35.1849 77.3207 34.7608L78.502 32.1075C79.0714 32.4831 79.7317 32.786 80.4829 33.0162C81.2341 33.2463 81.9731 33.3614 82.7001 33.3614C84.0813 33.3614 84.7719 33.0162 84.7719 32.3256C84.7719 31.9621 84.572 31.6955 84.1721 31.5259C83.7844 31.3442 83.1544 31.1564 82.2821 30.9625C81.3249 30.7566 80.5253 30.5385 79.8832 30.3083C79.241 30.066 78.6898 29.6843 78.2294 29.1633C77.769 28.6424 77.5388 27.9396 77.5388 27.0552C77.5388 26.2798 77.7508 25.5831 78.1748 24.9652C78.5989 24.3352 79.2289 23.8385 80.0649 23.475C80.913 23.1115 81.9489 22.9298 83.1726 22.9298C84.0086 22.9298 84.8325 23.0267 85.6442 23.2205C86.456 23.4023 87.1708 23.6749 87.7887 24.0384L86.6801 26.7099C85.4685 26.0556 84.2933 25.7285 83.1544 25.7285C82.4396 25.7285 81.9186 25.8376 81.5915 26.0556C81.2644 26.2616 81.1008 26.5342 81.1008 26.8735C81.1008 27.2127 81.2946 27.4671 81.6824 27.6367C82.0701 27.8064 82.694 27.982 83.5542 28.1638C84.5235 28.3698 85.3231 28.5939 85.9532 28.8362C86.5953 29.0664 87.1466 29.442 87.607 29.963C88.0795 30.4718 88.3157 31.1685 88.3157 32.0529C88.3157 32.8162 88.1037 33.5068 87.6797 34.1247C87.2556 34.7426 86.6195 35.2394 85.7714 35.615C84.9233 35.9785 83.8935 36.1602 82.6819 36.1602ZM101.609 36.1602C100.277 36.1602 99.0771 35.8815 98.011 35.3242C96.9569 34.7548 96.127 33.9672 95.5212 32.9616C94.9154 31.956 94.6125 30.8171 94.6125 29.545C94.6125 28.2728 94.9154 27.1339 95.5212 26.1283C96.127 25.1227 96.9569 24.3413 98.011 23.7839C99.0771 23.2145 100.277 22.9298 101.609 22.9298C102.772 22.9298 103.82 23.1357 104.753 23.5477C105.686 23.9596 106.462 24.5533 107.08 25.3287L104.79 27.4005C103.966 26.407 102.966 25.9103 101.791 25.9103C101.1 25.9103 100.483 26.0617 99.9374 26.3646C99.4043 26.6675 98.9863 27.0976 98.6834 27.6549C98.3926 28.2001 98.2472 28.8302 98.2472 29.545C98.2472 30.2598 98.3926 30.8959 98.6834 31.4532C98.9863 31.9984 99.4043 32.4225 99.9374 32.7254C100.483 33.0283 101.1 33.1797 101.791 33.1797C102.966 33.1797 103.966 32.683 104.79 31.6895L107.08 33.7613C106.462 34.5367 105.686 35.1304 104.753 35.5423C103.82 35.9542 102.772 36.1602 101.609 36.1602ZM118.898 33.1252V35.9058H108.684V23.1842H118.661V25.9648H112.246V28.1093H117.898V30.799H112.246V33.1252H118.898ZM129.4 29.2724H132.581V34.5427C131.854 35.0637 131.018 35.4635 130.073 35.7422C129.128 36.0209 128.182 36.1602 127.237 36.1602C125.905 36.1602 124.705 35.8815 123.639 35.3242C122.573 34.7548 121.737 33.9672 121.131 32.9616C120.525 31.956 120.222 30.8171 120.222 29.545C120.222 28.2728 120.525 27.1339 121.131 26.1283C121.737 25.1227 122.579 24.3413 123.657 23.7839C124.736 23.2145 125.953 22.9298 127.31 22.9298C128.497 22.9298 129.564 23.1297 130.509 23.5295C131.454 23.9293 132.241 24.5048 132.871 25.256L130.581 27.3278C129.721 26.3828 128.691 25.9103 127.492 25.9103C126.401 25.9103 125.523 26.2434 124.857 26.9098C124.19 27.5641 123.857 28.4424 123.857 29.545C123.857 30.2477 124.009 30.8777 124.311 31.435C124.614 31.9803 125.038 32.4104 125.584 32.7254C126.129 33.0283 126.753 33.1797 127.456 33.1797C128.146 33.1797 128.794 33.0404 129.4 32.7617V29.2724ZM141.277 36.1602C139.932 36.1602 138.721 35.8755 137.642 35.306C136.576 34.7366 135.734 33.9491 135.116 32.9435C134.511 31.9378 134.208 30.805 134.208 29.545C134.208 28.2849 134.511 27.1521 135.116 26.1465C135.734 25.1409 136.576 24.3534 137.642 23.7839C138.721 23.2145 139.932 22.9298 141.277 22.9298C142.622 22.9298 143.828 23.2145 144.894 23.7839C145.972 24.3534 146.814 25.1409 147.42 26.1465C148.038 27.1521 148.347 28.2849 148.347 29.545C148.347 30.805 148.038 31.9378 147.42 32.9435C146.814 33.9491 145.972 34.7366 144.894 35.306C143.828 35.8755 142.622 36.1602 141.277 36.1602ZM141.277 33.1797C141.919 33.1797 142.501 33.0283 143.022 32.7254C143.543 32.4225 143.955 31.9984 144.258 31.4532C144.561 30.8959 144.712 30.2598 144.712 29.545C144.712 28.8302 144.561 28.2001 144.258 27.6549C143.955 27.0976 143.543 26.6675 143.022 26.3646C142.501 26.0617 141.919 25.9103 141.277 25.9103C140.635 25.9103 140.053 26.0617 139.533 26.3646C139.012 26.6675 138.6 27.0976 138.297 27.6549C137.994 28.2001 137.842 28.8302 137.842 29.545C137.842 30.2598 137.994 30.8959 138.297 31.4532C138.6 31.9984 139.012 32.4225 139.533 32.7254C140.053 33.0283 140.635 33.1797 141.277 33.1797ZM154.702 36.1602C153.672 36.1602 152.673 36.033 151.703 35.7785C150.734 35.5241 149.947 35.1849 149.341 34.7608L150.522 32.1075C151.092 32.4831 151.752 32.786 152.503 33.0162C153.254 33.2463 153.993 33.3614 154.72 33.3614C156.101 33.3614 156.792 33.0162 156.792 32.3256C156.792 31.9621 156.592 31.6955 156.192 31.5259C155.805 31.3442 155.175 31.1564 154.302 30.9625C153.345 30.7566 152.546 30.5385 151.903 30.3083C151.261 30.066 150.71 29.6843 150.25 29.1633C149.789 28.6424 149.559 27.9396 149.559 27.0552C149.559 26.2798 149.771 25.5831 150.195 24.9652C150.619 24.3352 151.249 23.8385 152.085 23.475C152.933 23.1115 153.969 22.9298 155.193 22.9298C156.029 22.9298 156.853 23.0267 157.664 23.2205C158.476 23.4023 159.191 23.6749 159.809 24.0384L158.7 26.7099C157.489 26.0556 156.314 25.7285 155.175 25.7285C154.46 25.7285 153.939 25.8376 153.612 26.0556C153.285 26.2616 153.121 26.5342 153.121 26.8735C153.121 27.2127 153.315 27.4671 153.703 27.6367C154.09 27.8064 154.714 27.982 155.574 28.1638C156.544 28.3698 157.343 28.5939 157.973 28.8362C158.616 29.0664 159.167 29.442 159.627 29.963C160.1 30.4718 160.336 31.1685 160.336 32.0529C160.336 32.8162 160.124 33.5068 159.7 34.1247C159.276 34.7426 158.64 35.2394 157.792 35.615C156.944 35.9785 155.914 36.1602 154.702 36.1602Z" fill="#EF6D1F"/>
<path d="M47.8679 2.9889H49.5414V12H47.8679V2.9889ZM59.9857 2.9889V12H58.6083L53.6393 5.8982V12H51.9787V2.9889H53.3561L58.3251 9.0907V2.9889H59.9857ZM65.1937 12.1287C64.4986 12.1287 63.8249 12.03 63.1727 11.8327C62.529 11.6353 62.0184 11.3735 61.6408 11.0474L62.2201 9.74722C62.5891 10.039 63.0397 10.2793 63.5717 10.4681C64.1124 10.6483 64.6531 10.7384 65.1937 10.7384C65.8631 10.7384 66.3609 10.6312 66.687 10.4166C67.0217 10.2021 67.1891 9.91886 67.1891 9.567C67.1891 9.30954 67.0947 9.09928 66.9058 8.93623C66.7256 8.76459 66.4939 8.63156 66.2107 8.53716C65.9275 8.44276 65.5413 8.33549 65.0521 8.21534C64.3656 8.05228 63.8077 7.88922 63.3786 7.72616C62.9581 7.56311 62.5934 7.30994 62.2844 6.96666C61.9841 6.61479 61.8339 6.14278 61.8339 5.55063C61.8339 5.05287 61.9669 4.60231 62.2329 4.19896C62.5076 3.78702 62.9152 3.46091 63.4559 3.22061C64.0051 2.98032 64.6745 2.86017 65.4641 2.86017C66.0133 2.86017 66.554 2.92882 67.0861 3.06614C67.6182 3.20345 68.0773 3.40083 68.4635 3.65829L67.9357 4.95847C67.5409 4.72675 67.129 4.55082 66.6999 4.43067C66.2708 4.31053 65.8546 4.25045 65.4512 4.25045C64.7904 4.25045 64.2969 4.36202 63.9708 4.58515C63.6533 4.80828 63.4945 5.10436 63.4945 5.47339C63.4945 5.73085 63.5846 5.94111 63.7648 6.10416C63.9536 6.26722 64.1896 6.39595 64.4729 6.49035C64.7561 6.58476 65.1422 6.69203 65.6314 6.81218C66.3008 6.96666 66.8501 7.12971 67.2792 7.30135C67.7083 7.46441 68.073 7.71758 68.3734 8.06086C68.6823 8.40414 68.8368 8.86757 68.8368 9.45115C68.8368 9.9489 68.6995 10.3995 68.4249 10.8028C68.1588 11.2062 67.7512 11.528 67.2019 11.7683C66.6527 12.0086 65.9833 12.1287 65.1937 12.1287ZM72.1985 4.40493H69.2119V2.9889H76.8585V4.40493H73.872V12H72.1985V4.40493ZM78.1144 2.9889H79.7879V12H78.1144V2.9889ZM84.0532 4.40493H81.0667V2.9889H88.7132V4.40493H85.7267V12H84.0532V4.40493ZM93.6805 12.1287C92.4361 12.1287 91.4663 11.7812 90.7712 11.086C90.076 10.3823 89.7285 9.3782 89.7285 8.07373V2.9889H91.402V8.00937C91.402 9.77726 92.1658 10.6612 93.6934 10.6612C95.2124 10.6612 95.9719 9.77726 95.9719 8.00937V2.9889H97.6196V8.07373C97.6196 9.3782 97.2721 10.3823 96.5769 11.086C95.8904 11.7812 94.9249 12.1287 93.6805 12.1287ZM101.628 4.40493H98.6413V2.9889H106.288V4.40493H103.301V12H101.628V4.40493ZM111.628 12.1287C110.709 12.1287 109.881 11.9313 109.143 11.5366C108.405 11.1332 107.826 10.5797 107.405 9.87595C106.985 9.16365 106.774 8.36981 106.774 7.49445C106.774 6.61908 106.985 5.82954 107.405 5.12582C107.826 4.41351 108.405 3.85997 109.143 3.4652C109.881 3.06185 110.709 2.86017 111.628 2.86017C112.546 2.86017 113.374 3.06185 114.112 3.4652C114.85 3.85997 115.429 4.40922 115.85 5.11294C116.27 5.81667 116.481 6.6105 116.481 7.49445C116.481 8.3784 116.27 9.17223 115.85 9.87595C115.429 10.5797 114.85 11.1332 114.112 11.5366C113.374 11.9313 112.546 12.1287 111.628 12.1287ZM111.628 10.6612C112.228 10.6612 112.769 10.5282 113.25 10.2621C113.73 9.98752 114.108 9.60991 114.382 9.12932C114.657 8.64015 114.794 8.09519 114.794 7.49445C114.794 6.89371 114.657 6.35304 114.382 5.87245C114.108 5.38328 113.73 5.00567 113.25 4.73963C112.769 4.465 112.228 4.32769 111.628 4.32769C111.027 4.32769 110.486 4.465 110.006 4.73963C109.525 5.00567 109.147 5.38328 108.873 5.87245C108.598 6.35304 108.461 6.89371 108.461 7.49445C108.461 8.09519 108.598 8.64015 108.873 9.12932C109.147 9.60991 109.525 9.98752 110.006 10.2621C110.486 10.5282 111.027 10.6612 111.628 10.6612Z" fill="#FFCB77"/>
<path d="M4.49076 56.8504C3.73872 56.8504 3.0583 56.6856 2.44951 56.3562C1.84787 56.0195 1.37516 55.5611 1.03137 54.981C0.687581 54.3937 0.515686 53.7347 0.515686 53.0042C0.515686 52.2736 0.687581 51.6183 1.03137 51.0381C1.37516 50.4508 1.85146 49.9924 2.46025 49.663C3.06905 49.3264 3.74947 49.158 4.50151 49.158C5.08882 49.158 5.62599 49.2583 6.11303 49.4589C6.60006 49.6522 7.01548 49.9423 7.35927 50.3291L6.66094 51.0059C6.09512 50.4114 5.38963 50.1142 4.54448 50.1142C3.98582 50.1142 3.48088 50.2395 3.02965 50.4902C2.57843 50.7409 2.2239 51.0883 1.96605 51.5323C1.71537 51.9692 1.59003 52.4599 1.59003 53.0042C1.59003 53.5485 1.71537 54.0427 1.96605 54.4868C2.2239 54.9237 2.57843 55.2675 3.02965 55.5182C3.48088 55.7688 3.98582 55.8942 4.54448 55.8942C5.38247 55.8942 6.08796 55.5934 6.66094 54.9917L7.35927 55.6686C7.01548 56.0553 6.59648 56.349 6.10228 56.5495C5.61525 56.7501 5.07807 56.8504 4.49076 56.8504ZM10.6341 51.0167C11.4219 51.0167 12.0236 51.21 12.439 51.5968C12.8616 51.9836 13.0729 52.5601 13.0729 53.3265V56.7644H12.0952V56.0124C11.9233 56.2774 11.6762 56.4815 11.3539 56.6247C11.0388 56.7608 10.6627 56.8289 10.2258 56.8289C9.58839 56.8289 9.07629 56.6749 8.68952 56.3669C8.30992 56.0589 8.12012 55.6542 8.12012 55.1529C8.12012 54.6515 8.30276 54.2504 8.66804 53.9496C9.03332 53.6416 9.61346 53.4877 10.4085 53.4877H12.0415V53.2835C12.0415 52.8395 11.9126 52.4993 11.6547 52.2629C11.3969 52.0265 11.0173 51.9084 10.5159 51.9084C10.1793 51.9084 9.84982 51.9657 9.52751 52.0803C9.20521 52.1877 8.93304 52.3345 8.71101 52.5207L8.28127 51.7472C8.57493 51.5109 8.92588 51.3318 9.33413 51.21C9.74238 51.0811 10.1757 51.0167 10.6341 51.0167ZM10.3977 56.0338C10.7917 56.0338 11.1319 55.9479 11.4184 55.776C11.7049 55.5969 11.9126 55.3463 12.0415 55.024V54.2289H10.4515C9.57765 54.2289 9.14075 54.5226 9.14075 55.1099C9.14075 55.3964 9.25177 55.622 9.4738 55.7867C9.69583 55.9515 10.0038 56.0338 10.3977 56.0338ZM16.5071 56.8289C16.0415 56.8289 15.5939 56.768 15.1641 56.6462C14.7344 56.5173 14.3978 56.3562 14.1543 56.1628L14.584 55.3463C14.8347 55.5253 15.1391 55.6686 15.4972 55.776C15.8553 55.8834 16.217 55.9372 16.5823 55.9372C17.4847 55.9372 17.9359 55.6793 17.9359 55.1636C17.9359 54.9917 17.8751 54.8557 17.7533 54.7554C17.6315 54.6551 17.4776 54.5835 17.2913 54.5405C17.1123 54.4904 16.8544 54.4367 16.5178 54.3794C16.0594 54.3077 15.6834 54.2254 15.3897 54.1323C15.1033 54.0391 14.8562 53.8816 14.6484 53.6595C14.4407 53.4375 14.3369 53.126 14.3369 52.7249C14.3369 52.2092 14.5518 51.7973 14.9815 51.4894C15.4112 51.1742 15.9878 51.0167 16.7112 51.0167C17.0908 51.0167 17.4704 51.0632 17.85 51.1563C18.2296 51.2494 18.5412 51.3748 18.7847 51.5323L18.3442 52.3488C17.8786 52.048 17.3307 51.8976 16.7004 51.8976C16.2635 51.8976 15.9305 51.9692 15.7013 52.1125C15.4721 52.2557 15.3575 52.4455 15.3575 52.6819C15.3575 52.8681 15.422 53.0149 15.5509 53.1224C15.6798 53.2298 15.8374 53.3086 16.0236 53.3587C16.217 53.4089 16.4856 53.4662 16.8294 53.5306C17.2878 53.6094 17.6566 53.6954 17.9359 53.7885C18.2224 53.8744 18.466 54.0248 18.6665 54.2397C18.867 54.4546 18.9673 54.7554 18.9673 55.1421C18.9673 55.6578 18.7453 56.0697 18.3012 56.3776C17.8643 56.6785 17.2663 56.8289 16.5071 56.8289ZM22.2223 51.0167C23.0102 51.0167 23.6118 51.21 24.0272 51.5968C24.4498 51.9836 24.6611 52.5601 24.6611 53.3265V56.7644H23.6834V56.0124C23.5115 56.2774 23.2644 56.4815 22.9421 56.6247C22.627 56.7608 22.251 56.8289 21.8141 56.8289C21.1766 56.8289 20.6645 56.6749 20.2778 56.3669C19.8982 56.0589 19.7084 55.6542 19.7084 55.1529C19.7084 54.6515 19.891 54.2504 20.2563 53.9496C20.6216 53.6416 21.2017 53.4877 21.9967 53.4877H23.6297V53.2835C23.6297 52.8395 23.5008 52.4993 23.243 52.2629C22.9851 52.0265 22.6055 51.9084 22.1042 51.9084C21.7675 51.9084 21.4381 51.9657 21.1158 52.0803C20.7935 52.1877 20.5213 52.3345 20.2993 52.5207L19.8695 51.7472C20.1632 51.5109 20.5141 51.3318 20.9224 51.21C21.3306 51.0811 21.7639 51.0167 22.2223 51.0167ZM21.986 56.0338C22.3799 56.0338 22.7201 55.9479 23.0066 55.776C23.2931 55.5969 23.5008 55.3463 23.6297 55.024V54.2289H22.0397C21.1659 54.2289 20.729 54.5226 20.729 55.1099C20.729 55.3964 20.84 55.622 21.062 55.7867C21.2841 55.9515 21.5921 56.0338 21.986 56.0338ZM34.6118 48.7928V56.7644H33.6234V55.862C33.3942 56.1771 33.1041 56.417 32.7532 56.5818C32.4022 56.7465 32.0155 56.8289 31.5929 56.8289C31.0414 56.8289 30.5472 56.7071 30.1103 56.4636C29.6734 56.2201 29.3296 55.8799 29.0789 55.443C28.8354 54.9989 28.7136 54.4904 28.7136 53.9174C28.7136 53.3444 28.8354 52.8395 29.0789 52.4026C29.3296 51.9657 29.6734 51.6255 30.1103 51.3819C30.5472 51.1384 31.0414 51.0167 31.5929 51.0167C32.0011 51.0167 32.3772 51.0954 32.721 51.253C33.0647 51.4034 33.3512 51.629 33.5804 51.9298V48.7928H34.6118ZM31.6788 55.9264C32.037 55.9264 32.3628 55.844 32.6565 55.6793C32.9502 55.5074 33.1793 55.2711 33.3441 54.9702C33.5088 54.6623 33.5912 54.3113 33.5912 53.9174C33.5912 53.5235 33.5088 53.1761 33.3441 52.8753C33.1793 52.5673 32.9502 52.3309 32.6565 52.1662C32.3628 52.0015 32.037 51.9191 31.6788 51.9191C31.3136 51.9191 30.9841 52.0015 30.6904 52.1662C30.404 52.3309 30.1748 52.5673 30.0029 52.8753C29.8381 53.1761 29.7558 53.5235 29.7558 53.9174C29.7558 54.3113 29.8381 54.6623 30.0029 54.9702C30.1748 55.2711 30.404 55.5074 30.6904 55.6793C30.9841 55.844 31.3136 55.9264 31.6788 55.9264ZM41.6019 53.9496C41.6019 54.0284 41.5948 54.1323 41.5804 54.2612H36.9608C37.0252 54.7625 37.2437 55.1672 37.6161 55.4752C37.9957 55.776 38.4648 55.9264 39.0235 55.9264C39.7039 55.9264 40.2518 55.6972 40.6672 55.2388L41.2367 55.9049C40.9788 56.2057 40.6565 56.4349 40.2697 56.5925C39.8901 56.7501 39.464 56.8289 38.9913 56.8289C38.3896 56.8289 37.856 56.7071 37.3905 56.4636C36.9249 56.2129 36.5632 55.8655 36.3054 55.4215C36.0547 54.9774 35.9294 54.476 35.9294 53.9174C35.9294 53.3659 36.0511 52.8681 36.2947 52.424C36.5453 51.98 36.8856 51.6362 37.3153 51.3927C37.7522 51.142 38.2428 51.0167 38.7871 51.0167C39.3315 51.0167 39.8149 51.142 40.2375 51.3927C40.6672 51.6362 41.0003 51.98 41.2367 52.424C41.4802 52.8681 41.6019 53.3766 41.6019 53.9496ZM38.7871 51.8869C38.2929 51.8869 37.8775 52.0373 37.5409 52.3381C37.2114 52.6389 37.0181 53.0328 36.9608 53.5199H40.6135C40.5562 53.04 40.3593 52.6497 40.0226 52.3488C39.6932 52.0409 39.2813 51.8869 38.7871 51.8869ZM48.0465 56.8504C47.4807 56.8504 46.9328 56.7644 46.4027 56.5925C45.8799 56.4135 45.4681 56.1843 45.1673 55.9049L45.5648 55.0669C45.8513 55.3248 46.2165 55.5361 46.6606 55.7008C47.1118 55.8584 47.5738 55.9372 48.0465 55.9372C48.6696 55.9372 49.1352 55.8333 49.4431 55.6256C49.7511 55.4107 49.9051 55.1278 49.9051 54.7769C49.9051 54.519 49.8192 54.3113 49.6473 54.1537C49.4825 53.989 49.2748 53.8637 49.0242 53.7777C48.7806 53.6918 48.4333 53.5951 47.982 53.4877C47.4162 53.3516 46.9578 53.2155 46.6069 53.0794C46.2631 52.9433 45.9658 52.7356 45.7152 52.4563C45.4716 52.1698 45.3499 51.7866 45.3499 51.3067C45.3499 50.9056 45.4537 50.5439 45.6614 50.2216C45.8763 49.8993 46.1986 49.6415 46.6284 49.4481C47.0581 49.2547 47.5917 49.158 48.2291 49.158C48.6732 49.158 49.1101 49.2153 49.5398 49.3299C49.9696 49.4445 50.3384 49.6093 50.6464 49.8241L50.2919 50.6836C49.9767 50.4831 49.6401 50.3327 49.282 50.2324C48.9239 50.1249 48.5729 50.0712 48.2291 50.0712C47.6203 50.0712 47.162 50.1822 46.854 50.4043C46.5532 50.6263 46.4027 50.9128 46.4027 51.2638C46.4027 51.5216 46.4887 51.7329 46.6606 51.8976C46.8325 52.0552 47.0438 52.1805 47.2945 52.2736C47.5523 52.3596 47.8997 52.4527 48.3366 52.553C48.9024 52.6891 49.3572 52.8251 49.701 52.9612C50.0448 53.0973 50.3384 53.305 50.582 53.5843C50.8326 53.8637 50.958 54.2397 50.958 54.7124C50.958 55.1063 50.8505 55.468 50.6357 55.7975C50.4208 56.1198 50.0949 56.3776 49.658 56.571C49.2211 56.7572 48.6839 56.8504 48.0465 56.8504ZM54.3432 51.0167C55.131 51.0167 55.7327 51.21 56.1481 51.5968C56.5706 51.9836 56.7819 52.5601 56.7819 53.3265V56.7644H55.8043V56.0124C55.6324 56.2774 55.3853 56.4815 55.063 56.6247C54.7478 56.7608 54.3718 56.8289 53.9349 56.8289C53.2975 56.8289 52.7854 56.6749 52.3986 56.3669C52.019 56.0589 51.8292 55.6542 51.8292 55.1529C51.8292 54.6515 52.0118 54.2504 52.3771 53.9496C52.7424 53.6416 53.3225 53.4877 54.1176 53.4877H55.7506V53.2835C55.7506 52.8395 55.6216 52.4993 55.3638 52.2629C55.106 52.0265 54.7264 51.9084 54.225 51.9084C53.8884 51.9084 53.5589 51.9657 53.2366 52.0803C52.9143 52.1877 52.6421 52.3345 52.4201 52.5207L51.9904 51.7472C52.284 51.5109 52.635 51.3318 53.0432 51.21C53.4515 51.0811 53.8848 51.0167 54.3432 51.0167ZM54.1068 56.0338C54.5007 56.0338 54.8409 55.9479 55.1274 55.776C55.4139 55.5969 55.6216 55.3463 55.7506 55.024V54.2289H54.1605C53.2867 54.2289 52.8498 54.5226 52.8498 55.1099C52.8498 55.3964 52.9608 55.622 53.1829 55.7867C53.4049 55.9515 53.7129 56.0338 54.1068 56.0338ZM61.602 51.0167C62.1535 51.0167 62.6477 51.1384 63.0846 51.3819C63.5215 51.6255 63.8618 51.9657 64.1053 52.4026C64.356 52.8395 64.4813 53.3444 64.4813 53.9174C64.4813 54.4904 64.356 54.9989 64.1053 55.443C63.8618 55.8799 63.5215 56.2201 63.0846 56.4636C62.6477 56.7071 62.1535 56.8289 61.602 56.8289C61.1795 56.8289 60.7927 56.7465 60.4418 56.5818C60.0908 56.417 59.8007 56.1771 59.5715 55.862V56.7644H58.5831V48.7928H59.6145V51.9298C59.8437 51.629 60.1302 51.4034 60.474 51.253C60.8178 51.0954 61.1938 51.0167 61.602 51.0167ZM61.5161 55.9264C61.8814 55.9264 62.2073 55.844 62.4938 55.6793C62.7874 55.5074 63.0166 55.2711 63.1813 54.9702C63.3532 54.6623 63.4392 54.3113 63.4392 53.9174C63.4392 53.5235 63.3532 53.1761 63.1813 52.8753C63.0166 52.5673 62.7874 52.3309 62.4938 52.1662C62.2073 52.0015 61.8814 51.9191 61.5161 51.9191C61.158 51.9191 60.8321 52.0015 60.5384 52.1662C60.2448 52.3309 60.0156 52.5673 59.8509 52.8753C59.6861 53.1761 59.6038 53.5235 59.6038 53.9174C59.6038 54.3113 59.6861 54.6623 59.8509 54.9702C60.0156 55.2711 60.2448 55.5074 60.5384 55.6793C60.8321 55.844 61.158 55.9264 61.5161 55.9264ZM70.945 53.9496C70.945 54.0284 70.9378 54.1323 70.9235 54.2612H66.3038C66.3683 54.7625 66.5867 55.1672 66.9592 55.4752C67.3388 55.776 67.8079 55.9264 68.3666 55.9264C69.047 55.9264 69.5949 55.6972 70.0103 55.2388L70.5797 55.9049C70.3219 56.2057 69.9996 56.4349 69.6128 56.5925C69.2332 56.7501 68.807 56.8289 68.3343 56.8289C67.7327 56.8289 67.1991 56.7071 66.7336 56.4636C66.268 56.2129 65.9063 55.8655 65.6485 55.4215C65.3978 54.9774 65.2725 54.476 65.2725 53.9174C65.2725 53.3659 65.3942 52.8681 65.6377 52.424C65.8884 51.98 66.2286 51.6362 66.6584 51.3927C67.0953 51.142 67.5859 51.0167 68.1302 51.0167C68.6745 51.0167 69.158 51.142 69.5806 51.3927C70.0103 51.6362 70.3434 51.98 70.5797 52.424C70.8232 52.8681 70.945 53.3766 70.945 53.9496ZM68.1302 51.8869C67.636 51.8869 67.2206 52.0373 66.884 52.3381C66.5545 52.6389 66.3611 53.0328 66.3038 53.5199H69.9566C69.8993 53.04 69.7023 52.6497 69.3657 52.3488C69.0362 52.0409 68.6244 51.8869 68.1302 51.8869ZM73.2581 52.0265C73.4372 51.6971 73.7022 51.4464 74.0531 51.2745C74.4041 51.1026 74.8302 51.0167 75.3316 51.0167V52.0158C75.2743 52.0086 75.1955 52.0051 75.0952 52.0051C74.5366 52.0051 74.0961 52.1734 73.7738 52.51C73.4587 52.8395 73.3011 53.3122 73.3011 53.9281V56.7644H72.2697V51.0704H73.2581V52.0265ZM81.589 53.9496C81.589 54.0284 81.5818 54.1323 81.5675 54.2612H76.9478C77.0123 54.7625 77.2307 55.1672 77.6032 55.4752C77.9828 55.776 78.4519 55.9264 79.0106 55.9264C79.691 55.9264 80.2389 55.6972 80.6543 55.2388L81.2237 55.9049C80.9659 56.2057 80.6436 56.4349 80.2568 56.5925C79.8772 56.7501 79.451 56.8289 78.9783 56.8289C78.3767 56.8289 77.8431 56.7071 77.3776 56.4636C76.912 56.2129 76.5503 55.8655 76.2925 55.4215C76.0418 54.9774 75.9164 54.476 75.9164 53.9174C75.9164 53.3659 76.0382 52.8681 76.2817 52.424C76.5324 51.98 76.8726 51.6362 77.3023 51.3927C77.7392 51.142 78.2299 51.0167 78.7742 51.0167C79.3185 51.0167 79.802 51.142 80.2246 51.3927C80.6543 51.6362 80.9874 51.98 81.2237 52.424C81.4672 52.8681 81.589 53.3766 81.589 53.9496ZM78.7742 51.8869C78.28 51.8869 77.8646 52.0373 77.528 52.3381C77.1985 52.6389 77.0051 53.0328 76.9478 53.5199H80.6006C80.5433 53.04 80.3463 52.6497 80.0097 52.3488C79.6802 52.0409 79.2684 51.8869 78.7742 51.8869ZM84.5467 56.8289C84.0812 56.8289 83.6335 56.768 83.2038 56.6462C82.774 56.5173 82.4374 56.3562 82.1939 56.1628L82.6236 55.3463C82.8743 55.5253 83.1787 55.6686 83.5368 55.776C83.8949 55.8834 84.2566 55.9372 84.6219 55.9372C85.5244 55.9372 85.9756 55.6793 85.9756 55.1636C85.9756 54.9917 85.9147 54.8557 85.793 54.7554C85.6712 54.6551 85.5172 54.5835 85.331 54.5405C85.1519 54.4904 84.8941 54.4367 84.5575 54.3794C84.0991 54.3077 83.723 54.2254 83.4294 54.1323C83.1429 54.0391 82.8958 53.8816 82.6881 53.6595C82.4804 53.4375 82.3765 53.126 82.3765 52.7249C82.3765 52.2092 82.5914 51.7973 83.0211 51.4894C83.4509 51.1742 84.0274 51.0167 84.7508 51.0167C85.1304 51.0167 85.51 51.0632 85.8896 51.1563C86.2692 51.2494 86.5808 51.3748 86.8243 51.5323L86.3838 52.3488C85.9183 52.048 85.3704 51.8976 84.7401 51.8976C84.3032 51.8976 83.9701 51.9692 83.741 52.1125C83.5118 52.2557 83.3972 52.4455 83.3972 52.6819C83.3972 52.8681 83.4616 53.0149 83.5905 53.1224C83.7195 53.2298 83.877 53.3086 84.0633 53.3587C84.2566 53.4089 84.5252 53.4662 84.869 53.5306C85.3274 53.6094 85.6963 53.6954 85.9756 53.7885C86.2621 53.8744 86.5056 54.0248 86.7061 54.2397C86.9067 54.4546 87.007 54.7554 87.007 55.1421C87.007 55.6578 86.7849 56.0697 86.3409 56.3776C85.904 56.6785 85.3059 56.8289 84.5467 56.8289ZM94.4794 56.8504C93.7273 56.8504 93.0469 56.6856 92.4381 56.3562C91.8365 56.0195 91.3638 55.5611 91.02 54.981C90.6762 54.3937 90.5043 53.7347 90.5043 53.0042C90.5043 52.2736 90.6762 51.6183 91.02 51.0381C91.3638 50.4508 91.8401 49.9924 92.4489 49.663C93.0577 49.3264 93.7381 49.158 94.4901 49.158C95.0774 49.158 95.6146 49.2583 96.1016 49.4589C96.5887 49.6522 97.0041 49.9423 97.3479 50.3291L96.6496 51.0059C96.0837 50.4114 95.3782 50.1142 94.5331 50.1142C93.9744 50.1142 93.4695 50.2395 93.0183 50.4902C92.567 50.7409 92.2125 51.0883 91.9547 51.5323C91.704 51.9692 91.5786 52.4599 91.5786 53.0042C91.5786 53.5485 91.704 54.0427 91.9547 54.4868C92.2125 54.9237 92.567 55.2675 93.0183 55.5182C93.4695 55.7688 93.9744 55.8942 94.5331 55.8942C95.3711 55.8942 96.0766 55.5934 96.6496 54.9917L97.3479 55.6686C97.0041 56.0553 96.5851 56.349 96.0909 56.5495C95.6039 56.7501 95.0667 56.8504 94.4794 56.8504ZM103.527 53.9496C103.527 54.0284 103.52 54.1323 103.506 54.2612H98.8863C98.9507 54.7625 99.1692 55.1672 99.5416 55.4752C99.9212 55.776 100.39 55.9264 100.949 55.9264C101.629 55.9264 102.177 55.6972 102.593 55.2388L103.162 55.9049C102.904 56.2057 102.582 56.4349 102.195 56.5925C101.816 56.7501 101.39 56.8289 100.917 56.8289C100.315 56.8289 99.7816 56.7071 99.316 56.4636C98.8505 56.2129 98.4888 55.8655 98.2309 55.4215C97.9803 54.9774 97.8549 54.476 97.8549 53.9174C97.8549 53.3659 97.9767 52.8681 98.2202 52.424C98.4709 51.98 98.8111 51.6362 99.2408 51.3927C99.6777 51.142 100.168 51.0167 100.713 51.0167C101.257 51.0167 101.74 51.142 102.163 51.3927C102.593 51.6362 102.926 51.98 103.162 52.424C103.406 52.8681 103.527 53.3766 103.527 53.9496ZM100.713 51.8869C100.218 51.8869 99.8031 52.0373 99.4664 52.3381C99.137 52.6389 98.9436 53.0328 98.8863 53.5199H102.539C102.482 53.04 102.285 52.6497 101.948 52.3488C101.619 52.0409 101.207 51.8869 100.713 51.8869ZM110.299 51.0704V55.9909C110.299 56.9864 110.052 57.7206 109.558 58.1933C109.064 58.6732 108.326 58.9131 107.345 58.9131C106.807 58.9131 106.295 58.8379 105.808 58.6875C105.321 58.5442 104.927 58.3365 104.627 58.0644L105.121 57.2693C105.386 57.4985 105.712 57.6776 106.098 57.8065C106.492 57.9426 106.897 58.0106 107.312 58.0106C107.979 58.0106 108.469 57.8531 108.784 57.5379C109.107 57.2228 109.268 56.7429 109.268 56.0983V55.6471C109.024 55.9407 108.723 56.1628 108.365 56.3132C108.014 56.4564 107.631 56.528 107.216 56.528C106.671 56.528 106.177 56.4135 105.733 56.1843C105.296 55.9479 104.952 55.622 104.702 55.2066C104.451 54.784 104.326 54.3042 104.326 53.767C104.326 53.2298 104.451 52.7535 104.702 52.3381C104.952 51.9155 105.296 51.5896 105.733 51.3604C106.177 51.1313 106.671 51.0167 107.216 51.0167C107.645 51.0167 108.043 51.0954 108.408 51.253C108.781 51.4106 109.085 51.6434 109.321 51.9513V51.0704H110.299ZM107.334 55.6256C107.706 55.6256 108.039 55.5468 108.333 55.3892C108.634 55.2317 108.867 55.0132 109.031 54.7339C109.203 54.4474 109.289 54.1251 109.289 53.767C109.289 53.2155 109.107 52.7714 108.741 52.4348C108.376 52.091 107.907 51.9191 107.334 51.9191C106.754 51.9191 106.281 52.091 105.916 52.4348C105.551 52.7714 105.368 53.2155 105.368 53.767C105.368 54.1251 105.45 54.4474 105.615 54.7339C105.787 55.0132 106.02 55.2317 106.313 55.3892C106.614 55.5468 106.954 55.6256 107.334 55.6256ZM114.601 56.8289C114.035 56.8289 113.527 56.7035 113.076 56.4528C112.624 56.2022 112.27 55.8584 112.012 55.4215C111.761 54.9774 111.636 54.476 111.636 53.9174C111.636 53.3587 111.761 52.8609 112.012 52.424C112.27 51.98 112.624 51.6362 113.076 51.3927C113.527 51.142 114.035 51.0167 114.601 51.0167C115.167 51.0167 115.672 51.142 116.116 51.3927C116.567 51.6362 116.918 51.98 117.169 52.424C117.427 52.8609 117.556 53.3587 117.556 53.9174C117.556 54.476 117.427 54.9774 117.169 55.4215C116.918 55.8584 116.567 56.2022 116.116 56.4528C115.672 56.7035 115.167 56.8289 114.601 56.8289ZM114.601 55.9264C114.966 55.9264 115.292 55.844 115.579 55.6793C115.872 55.5074 116.102 55.2711 116.266 54.9702C116.431 54.6623 116.513 54.3113 116.513 53.9174C116.513 53.5235 116.431 53.1761 116.266 52.8753C116.102 52.5673 115.872 52.3309 115.579 52.1662C115.292 52.0015 114.966 51.9191 114.601 51.9191C114.236 51.9191 113.906 52.0015 113.613 52.1662C113.326 52.3309 113.097 52.5673 112.925 52.8753C112.76 53.1761 112.678 53.5235 112.678 53.9174C112.678 54.3113 112.76 54.6623 112.925 54.9702C113.097 55.2711 113.326 55.5074 113.613 55.6793C113.906 55.844 114.236 55.9264 114.601 55.9264ZM126.594 54.8843H122.598L121.77 56.7644H120.664L124.07 49.244H125.133L128.55 56.7644H127.421L126.594 54.8843ZM126.218 54.0248L124.596 50.3398L122.974 54.0248H126.218ZM134.733 48.7928V56.7644H133.744V55.862C133.515 56.1771 133.225 56.417 132.874 56.5818C132.523 56.7465 132.137 56.8289 131.714 56.8289C131.162 56.8289 130.668 56.7071 130.231 56.4636C129.794 56.2201 129.451 55.8799 129.2 55.443C128.956 54.9989 128.835 54.4904 128.835 53.9174C128.835 53.3444 128.956 52.8395 129.2 52.4026C129.451 51.9657 129.794 51.6255 130.231 51.3819C130.668 51.1384 131.162 51.0167 131.714 51.0167C132.122 51.0167 132.498 51.0954 132.842 51.253C133.186 51.4034 133.472 51.629 133.701 51.9298V48.7928H134.733ZM131.8 55.9264C132.158 55.9264 132.484 55.844 132.778 55.6793C133.071 55.5074 133.3 55.2711 133.465 54.9702C133.63 54.6623 133.712 54.3113 133.712 53.9174C133.712 53.5235 133.63 53.1761 133.465 52.8753C133.3 52.5673 133.071 52.3309 132.778 52.1662C132.484 52.0015 132.158 51.9191 131.8 51.9191C131.435 51.9191 131.105 52.0015 130.811 52.1662C130.525 52.3309 130.296 52.5673 130.124 52.8753C129.959 53.1761 129.877 53.5235 129.877 53.9174C129.877 54.3113 129.959 54.6623 130.124 54.9702C130.296 55.2711 130.525 55.5074 130.811 55.6793C131.105 55.844 131.435 55.9264 131.8 55.9264ZM141.723 53.9496C141.723 54.0284 141.716 54.1323 141.701 54.2612H137.082C137.146 54.7625 137.365 55.1672 137.737 55.4752C138.117 55.776 138.586 55.9264 139.145 55.9264C139.825 55.9264 140.373 55.6972 140.788 55.2388L141.358 55.9049C141.1 56.2057 140.778 56.4349 140.391 56.5925C140.011 56.7501 139.585 56.8289 139.112 56.8289C138.511 56.8289 137.977 56.7071 137.512 56.4636C137.046 56.2129 136.684 55.8655 136.426 55.4215C136.176 54.9774 136.05 54.476 136.05 53.9174C136.05 53.3659 136.172 52.8681 136.416 52.424C136.666 51.98 137.007 51.6362 137.436 51.3927C137.873 51.142 138.364 51.0167 138.908 51.0167C139.453 51.0167 139.936 51.142 140.359 51.3927C140.788 51.6362 141.121 51.98 141.358 52.424C141.601 52.8681 141.723 53.3766 141.723 53.9496ZM138.908 51.8869C138.414 51.8869 137.999 52.0373 137.662 52.3381C137.332 52.6389 137.139 53.0328 137.082 53.5199H140.735C140.677 53.04 140.48 52.6497 140.144 52.3488C139.814 52.0409 139.402 51.8869 138.908 51.8869ZM144.036 52.0265C144.215 51.6971 144.48 51.4464 144.831 51.2745C145.182 51.1026 145.608 51.0167 146.11 51.0167V52.0158C146.052 52.0086 145.973 52.0051 145.873 52.0051C145.315 52.0051 144.874 52.1734 144.552 52.51C144.237 52.8395 144.079 53.3122 144.079 53.9281V56.7644H143.048V51.0704H144.036V52.0265ZM149.336 51.0167C150.124 51.0167 150.726 51.21 151.141 51.5968C151.564 51.9836 151.775 52.5601 151.775 53.3265V56.7644H150.797V56.0124C150.626 56.2774 150.378 56.4815 150.056 56.6247C149.741 56.7608 149.365 56.8289 148.928 56.8289C148.291 56.8289 147.778 56.6749 147.392 56.3669C147.012 56.0589 146.822 55.6542 146.822 55.1529C146.822 54.6515 147.005 54.2504 147.37 53.9496C147.736 53.6416 148.316 53.4877 149.111 53.4877H150.744V53.2835C150.744 52.8395 150.615 52.4993 150.357 52.2629C150.099 52.0265 149.719 51.9084 149.218 51.9084C148.881 51.9084 148.552 51.9657 148.23 52.0803C147.907 52.1877 147.635 52.3345 147.413 52.5207L146.983 51.7472C147.277 51.5109 147.628 51.3318 148.036 51.21C148.445 51.0811 148.878 51.0167 149.336 51.0167ZM149.1 56.0338C149.494 56.0338 149.834 55.9479 150.121 55.776C150.407 55.5969 150.615 55.3463 150.744 55.024V54.2289H149.154C148.28 54.2289 147.843 54.5226 147.843 55.1099C147.843 55.3964 147.954 55.622 148.176 55.7867C148.398 55.9515 148.706 56.0338 149.1 56.0338ZM153.576 48.7928H154.608V56.7644H153.576V48.7928ZM161.841 48.7928V56.7644H160.853V55.862C160.624 56.1771 160.334 56.417 159.983 56.5818C159.632 56.7465 159.245 56.8289 158.822 56.8289C158.271 56.8289 157.777 56.7071 157.34 56.4636C156.903 56.2201 156.559 55.8799 156.308 55.443C156.065 54.9989 155.943 54.4904 155.943 53.9174C155.943 53.3444 156.065 52.8395 156.308 52.4026C156.559 51.9657 156.903 51.6255 157.34 51.3819C157.777 51.1384 158.271 51.0167 158.822 51.0167C159.231 51.0167 159.607 51.0954 159.95 51.253C160.294 51.4034 160.581 51.629 160.81 51.9298V48.7928H161.841ZM158.908 55.9264C159.266 55.9264 159.592 55.844 159.886 55.6793C160.18 55.5074 160.409 55.2711 160.573 54.9702C160.738 54.6623 160.821 54.3113 160.821 53.9174C160.821 53.5235 160.738 53.1761 160.573 52.8753C160.409 52.5673 160.18 52.3309 159.886 52.1662C159.592 52.0015 159.266 51.9191 158.908 51.9191C158.543 51.9191 158.213 52.0015 157.92 52.1662C157.633 52.3309 157.404 52.5673 157.232 52.8753C157.067 53.1761 156.985 53.5235 156.985 53.9174C156.985 54.3113 157.067 54.6623 157.232 54.9702C157.404 55.2711 157.633 55.5074 157.92 55.6793C158.213 55.844 158.543 55.9264 158.908 55.9264ZM166.124 56.8289C165.558 56.8289 165.05 56.7035 164.598 56.4528C164.147 56.2022 163.793 55.8584 163.535 55.4215C163.284 54.9774 163.159 54.476 163.159 53.9174C163.159 53.3587 163.284 52.8609 163.535 52.424C163.793 51.98 164.147 51.6362 164.598 51.3927C165.05 51.142 165.558 51.0167 166.124 51.0167C166.69 51.0167 167.195 51.142 167.639 51.3927C168.09 51.6362 168.441 51.98 168.692 52.424C168.949 52.8609 169.078 53.3587 169.078 53.9174C169.078 54.476 168.949 54.9774 168.692 55.4215C168.441 55.8584 168.09 56.2022 167.639 56.4528C167.195 56.7035 166.69 56.8289 166.124 56.8289ZM166.124 55.9264C166.489 55.9264 166.815 55.844 167.102 55.6793C167.395 55.5074 167.624 55.2711 167.789 54.9702C167.954 54.6623 168.036 54.3113 168.036 53.9174C168.036 53.5235 167.954 53.1761 167.789 52.8753C167.624 52.5673 167.395 52.3309 167.102 52.1662C166.815 52.0015 166.489 51.9191 166.124 51.9191C165.759 51.9191 165.429 52.0015 165.136 52.1662C164.849 52.3309 164.62 52.5673 164.448 52.8753C164.283 53.1761 164.201 53.5235 164.201 53.9174C164.201 54.3113 164.283 54.6623 164.448 54.9702C164.62 55.2711 164.849 55.5074 165.136 55.6793C165.429 55.844 165.759 55.9264 166.124 55.9264Z" fill="#4B4B4B"/>
<path d="M27.4343 16.6959C25.8183 14.9381 22.7961 14.9036 20.6374 17.1372C18.4788 14.9036 15.4526 14.9381 13.8406 16.6959C10.6718 20.1308 13.9594 24.5367 17.1321 26.613C18.2119 27.2966 19.3943 27.8145 20.6374 28.1482C21.8805 27.8145 23.063 27.2966 24.1428 26.613C27.3155 24.5367 30.5872 20.1308 27.4343 16.6959Z" fill="#EF6D1F"/>
<path d="M32.1812 36.2631H8.11695C7.80931 36.2631 7.51428 36.1434 7.29674 35.9302C7.07921 35.7171 6.957 35.428 6.957 35.1265V22.9641C6.957 22.6627 7.07921 22.3736 7.29674 22.1604C7.51428 21.9473 7.80931 21.8275 8.11695 21.8275C8.42459 21.8275 8.71963 21.9473 8.93716 22.1604C9.1547 22.3736 9.2769 22.6627 9.2769 22.9641V33.99H31.0212V29.3606C31.0212 29.0591 31.1435 28.77 31.361 28.5569C31.5785 28.3437 31.8736 28.224 32.1812 28.224C32.4888 28.224 32.7839 28.3437 33.0014 28.5569C33.2189 28.77 33.3411 29.0591 33.3411 29.3606V35.1265C33.3411 35.428 33.2189 35.7171 33.0014 35.9302C32.7839 36.1434 32.4888 36.2631 32.1812 36.2631Z" fill="#EF6D1F" stroke="#EF6D1F" stroke-width="0.699421"/>
<path d="M38.8962 19.3913L30.8114 11.7986C30.8114 11.7986 30.8114 11.7737 30.8114 11.7613V7.04413C30.8194 6.89921 30.7971 6.75421 30.746 6.61798C30.6949 6.48176 30.616 6.35717 30.5142 6.25181C30.4123 6.14646 30.2896 6.06255 30.1535 6.0052C30.0174 5.94786 29.8709 5.91829 29.7228 5.91829C29.5746 5.91829 29.4281 5.94786 29.292 6.0052C29.1559 6.06255 29.0332 6.14646 28.9314 6.25181C28.8295 6.35717 28.7506 6.48176 28.6995 6.61798C28.6484 6.75421 28.6261 6.89921 28.6341 7.04413V9.75828L20.8979 2.48225C20.6824 2.27919 20.3951 2.16577 20.0961 2.16577C19.7971 2.16577 19.5098 2.27919 19.2943 2.48225L1.28969 19.3913C1.17207 19.4926 1.07659 19.6161 1.009 19.7545C0.941406 19.8928 0.903096 20.0432 0.896378 20.1964C0.88966 20.3497 0.914674 20.5027 0.969912 20.6462C1.02515 20.7898 1.10947 20.9209 1.21779 21.0316C1.32611 21.1424 1.45619 21.2305 1.60019 21.2907C1.7442 21.3509 1.89914 21.3819 2.0557 21.3818C2.21225 21.3817 2.36717 21.3506 2.51113 21.2903C2.65509 21.2301 2.7851 21.1418 2.89334 21.031L20.0929 4.88275L37.2894 21.031C37.3993 21.1344 37.5288 21.2156 37.6707 21.2699C37.8126 21.3242 37.964 21.3506 38.1163 21.3475C38.2686 21.3445 38.4188 21.3121 38.5583 21.2522C38.6979 21.1923 38.824 21.1061 38.9295 20.9984C39.035 20.8907 39.1178 20.7638 39.1732 20.6247C39.2287 20.4857 39.2556 20.3373 39.2525 20.1881C39.2494 20.0389 39.2164 19.8917 39.1552 19.755C39.0941 19.6183 39.0061 19.4947 38.8962 19.3913Z" fill="#EF6D1F" stroke="#EF6D1F" stroke-width="0.699421"/>
</svg>
