<svg width="390" height="177" viewBox="0 0 390 177" fill="none" xmlns="http://www.w3.org/2000/svg">
<g opacity="0.8" clip-path="url(#clip0_116_377)">
<path d="M352.593 71.2849H340.806V112.275H352.593V71.2849Z" fill="#F2F2F2"/>
<path d="M360.377 104.563L331.708 70.3008L274.162 70.8293L239.253 104.987L239.958 105.443H239.706V176.491H360.3V105.443L360.377 104.563Z" fill="#F2F2F2"/>
<path d="M331.738 70.374L295.923 112.556V176.492H360.3V104.532L331.738 70.374Z" fill="#E6E6E6"/>
<path d="M334.912 141.135H321.764V152.809H334.912V141.135Z" fill="#3F3D56"/>
<path d="M334.912 120.928H321.764V132.417H334.912V120.928Z" fill="#3F3D56"/>
<path d="M334.912 141.135H321.764V152.809H334.912V141.135Z" fill="white"/>
<path d="M334.912 120.928H321.764V132.417H334.912V120.928Z" fill="white"/>
<path d="M276.484 138.037H263.336V149.711H276.484V138.037Z" fill="white"/>
<path d="M276.484 117.83H263.336V129.319H276.484V117.83Z" fill="white"/>
<path d="M259.574 71.2849H247.787V112.275H259.574V71.2849Z" fill="#F2F2F2"/>
<path d="M267.358 104.563L238.689 70.3008L181.143 70.8293L146.234 104.987L146.939 105.443H146.687V176.491H267.281V105.443L267.358 104.563Z" fill="#F2F2F2"/>
<path d="M238.719 70.374L202.904 112.556V176.492H267.281V104.532L238.719 70.374Z" fill="#E6E6E6"/>
<path d="M241.893 141.135H228.745V152.809H241.893V141.135Z" fill="#3F3D56"/>
<path d="M241.893 120.928H228.745V132.417H241.893V120.928Z" fill="#3F3D56"/>
<path d="M241.893 141.135H228.745V152.809H241.893V141.135Z" fill="white"/>
<path d="M241.893 120.928H228.745V132.417H241.893V120.928Z" fill="white"/>
<path d="M183.465 138.037H170.317V149.711H183.465V138.037Z" fill="white"/>
<path d="M183.465 117.83H170.317V129.319H183.465V117.83Z" fill="white"/>
<path d="M164.328 35.9099H148.578V90.682H164.328V35.9099Z" fill="#F2F2F2"/>
<path d="M174.73 80.378L136.422 34.5952L59.5251 35.3012L12.8784 80.9446L13.8207 81.5532H13.4842V176.491H174.627V81.5532L174.73 80.378Z" fill="#F2F2F2"/>
<path d="M136.462 34.6926L88.6033 91.0587V176.492H174.627V80.3361L136.462 34.6926Z" fill="#E6E6E6"/>
<path d="M140.702 129.246H123.134V144.846H140.702V129.246Z" fill="#3F3D56"/>
<path d="M140.702 102.245H123.134V117.597H140.702V102.245Z" fill="#3F3D56"/>
<path d="M140.702 129.246H123.134V144.846H140.702V129.246Z" fill="white"/>
<path d="M140.702 102.245H123.134V117.597H140.702V102.245Z" fill="white"/>
<path d="M62.6278 125.107H45.0596V140.706H62.6278V125.107Z" fill="white"/>
<path d="M62.6278 98.1057H45.0596V113.458H62.6278V98.1057Z" fill="white"/>
<path d="M376.747 176.141H0V176.926H376.747V176.141Z" fill="#3F3D56"/>
<path d="M59.3572 161.702C65.6384 161.702 70.7303 151.265 70.7303 138.39C70.7303 125.516 65.6384 115.078 59.3572 115.078C53.076 115.078 47.9841 125.516 47.9841 138.39C47.9841 151.265 53.076 161.702 59.3572 161.702Z" fill="#3F3D56"/>
<path d="M60.4072 176.549C55.8522 149.094 60.3614 121.738 60.4075 121.466L61.2935 121.616C61.2476 121.888 56.7643 149.1 61.2937 176.4L60.4072 176.549Z" fill="#EF6D1F"/>
<path d="M69.37 133.378L59.0857 138.904L59.5096 139.7L69.7939 134.174L69.37 133.378Z" fill="#EF6D1F"/>
<path d="M48.6556 136.146L48.2314 136.942L58.5145 142.471L58.9387 141.675L48.6556 136.146Z" fill="#EF6D1F"/>
<path d="M32.031 148.034C44.3162 148.034 54.2754 127.62 54.2754 102.438C54.2754 77.2564 44.3162 56.8425 32.031 56.8425C19.7458 56.8425 9.78662 77.2564 9.78662 102.438C9.78662 127.62 19.7458 148.034 32.031 148.034Z" fill="#EF6D1F"/>
<path d="M34.5088 177C25.6115 123.373 34.419 69.9407 34.509 69.4072L35.395 69.558C35.3053 70.0901 26.5237 123.378 35.3952 176.852L34.5088 177Z" fill="#3F3D56"/>
<path d="M51.8181 93.014L31.7026 103.823L32.1266 104.619L52.242 93.8102L51.8181 93.014Z" fill="#3F3D56"/>
<path d="M10.8975 98.4283L10.4734 99.2244L30.5858 110.039L31.01 109.243L10.8975 98.4283Z" fill="#3F3D56"/>
<path d="M84.715 137.389C101.526 137.389 115.155 109.454 115.155 74.9951C115.155 40.5358 101.526 12.6011 84.715 12.6011C67.9037 12.6011 54.2754 40.5358 54.2754 74.9951C54.2754 109.454 67.9037 137.389 84.715 137.389Z" fill="#EF6D1F"/>
<path d="M88.2691 177C76.0985 103.643 88.1462 30.5529 88.2693 29.8232L89.1553 29.974C89.0324 30.7023 77.0106 103.648 89.1555 176.852L88.2691 177Z" fill="#3F3D56"/>
<path d="M111.87 62.2455L84.3438 77.0364L84.7677 77.8326L112.294 63.0417L111.87 62.2455Z" fill="#3F3D56"/>
<path d="M55.7173 69.6548L55.2932 70.4509L82.8156 85.2491L83.2397 84.453L55.7173 69.6548Z" fill="#3F3D56"/>
<path d="M340.43 161.702C346.711 161.702 351.803 151.265 351.803 138.39C351.803 125.516 346.711 115.078 340.43 115.078C334.149 115.078 329.057 125.516 329.057 138.39C329.057 151.265 334.149 161.702 340.43 161.702Z" fill="#3F3D56"/>
<path d="M339.379 176.549C343.934 149.094 339.425 121.738 339.379 121.466L338.493 121.616C338.539 121.888 343.022 149.1 338.493 176.4L339.379 176.549Z" fill="#EF6D1F"/>
<path d="M330.417 133.378L329.993 134.174L340.277 139.7L340.701 138.904L330.417 133.378Z" fill="#EF6D1F"/>
<path d="M351.131 136.146L340.848 141.675L341.272 142.471L351.555 136.942L351.131 136.146Z" fill="#EF6D1F"/>
<path d="M367.756 148.034C380.041 148.034 390 127.62 390 102.438C390 77.2564 380.041 56.8425 367.756 56.8425C355.47 56.8425 345.511 77.2564 345.511 102.438C345.511 127.62 355.47 148.034 367.756 148.034Z" fill="#EF6D1F"/>
<path d="M365.278 177C374.175 123.373 365.368 69.9407 365.278 69.4072L364.392 69.558C364.481 70.0901 373.263 123.378 364.391 176.852L365.278 177Z" fill="#3F3D56"/>
<path d="M347.969 93.0139L347.545 93.8101L367.66 104.619L368.084 103.823L347.969 93.0139Z" fill="#3F3D56"/>
<path d="M388.889 98.4286L368.777 109.243L369.201 110.039L389.313 99.2247L388.889 98.4286Z" fill="#3F3D56"/>
<path d="M315.072 137.389C331.883 137.389 345.511 109.454 345.511 74.9951C345.511 40.5358 331.883 12.6011 315.072 12.6011C298.26 12.6011 284.632 40.5358 284.632 74.9951C284.632 109.454 298.26 137.389 315.072 137.389Z" fill="#EF6D1F"/>
<path d="M311.518 177C323.688 103.643 311.641 30.5529 311.518 29.8232L310.632 29.974C310.754 30.7023 322.776 103.648 310.631 176.852L311.518 177Z" fill="#3F3D56"/>
<path d="M287.917 62.2455L287.493 63.0417L315.019 77.8326L315.443 77.0364L287.917 62.2455Z" fill="#3F3D56"/>
<path d="M344.069 69.655L316.547 84.4531L316.971 85.2492L344.494 70.4511L344.069 69.655Z" fill="#3F3D56"/>
<path d="M230.439 39.8383L234.036 36.9475C231.241 36.6377 230.093 38.169 229.623 39.3811C227.439 38.4702 225.062 39.664 225.062 39.664L232.261 42.2894C231.898 41.3149 231.266 40.4647 230.439 39.8383Z" fill="#3F3D56"/>
<path d="M142.5 14.3176L146.098 11.4267C143.303 11.1169 142.155 12.6483 141.685 13.8604C139.501 12.9495 137.124 14.1432 137.124 14.1432L144.323 16.7686C143.96 15.7942 143.327 14.9439 142.5 14.3176Z" fill="#3F3D56"/>
<path d="M285.937 2.93133L289.535 0.0404846C286.74 -0.269299 285.592 1.26205 285.122 2.47414C282.938 1.56324 280.561 2.75701 280.561 2.75701L287.76 5.3824C287.397 4.40794 286.764 3.55768 285.937 2.93133Z" fill="#3F3D56"/>
<path d="M293.202 171.599C292.245 171.599 291.306 171.852 290.478 172.333C289.637 171.569 288.593 171.067 287.474 170.887C286.354 170.708 285.207 170.858 284.171 171.321C283.135 171.784 282.255 172.539 281.638 173.494C281.021 174.45 280.693 175.564 280.695 176.703H298.654C298.556 175.318 297.939 174.021 296.927 173.074C295.916 172.126 294.584 171.6 293.202 171.599Z" fill="#3F3D56"/>
<path d="M110.681 171.599C109.725 171.599 108.785 171.852 107.957 172.333C107.117 171.569 106.073 171.067 104.954 170.887C103.834 170.708 102.687 170.858 101.651 171.321C100.615 171.784 99.7351 172.539 99.118 173.494C98.5009 174.45 98.1732 175.564 98.1746 176.703H116.133C116.035 175.318 115.419 174.021 114.407 173.074C113.395 172.126 112.064 171.6 110.681 171.599Z" fill="#3F3D56"/>
<path d="M204.091 171.599C203.135 171.599 202.195 171.852 201.367 172.333C200.526 171.569 199.483 171.067 198.363 170.887C197.244 170.708 196.096 170.858 195.061 171.321C194.025 171.784 193.145 172.539 192.528 173.494C191.911 174.45 191.583 175.564 191.584 176.703H209.543C209.445 175.318 208.828 174.021 207.817 173.074C206.805 172.126 205.474 171.6 204.091 171.599Z" fill="#3F3D56"/>
<path d="M184.38 158.711H132.568V160.39H140.649V176.341H142.32V160.39H173.793V176.341H175.464V160.39H184.38V158.711Z" fill="#3F3D56"/>
<path d="M184.482 153.688H132.67V155.367H184.482V153.688Z" fill="#3F3D56"/>
<path d="M184.482 149.49H132.67V151.17H184.482V149.49Z" fill="#3F3D56"/>
<path d="M184.482 145.293H132.67V146.972H184.482V145.293Z" fill="#3F3D56"/>
<path d="M265.284 158.711H213.471V160.39H221.552V176.341H223.223V160.39H254.696V176.341H256.367V160.39H265.284V158.711Z" fill="#3F3D56"/>
<path d="M265.385 153.688H213.573V155.367H265.385V153.688Z" fill="#3F3D56"/>
<path d="M265.385 149.49H213.573V151.17H265.385V149.49Z" fill="#3F3D56"/>
<path d="M265.385 145.293H213.573V146.972H265.385V145.293Z" fill="#3F3D56"/>
</g>
<defs>
<clipPath id="clip0_116_377">
<rect width="390" height="177" fill="white"/>
</clipPath>
</defs>
</svg>
